<?xml version="1.0" encoding="UTF-8" standalone="no"?>
<!DOCTYPE svg PUBLIC "-//W3C//DTD SVG 1.1//EN" "http://www.w3.org/Graphics/SVG/1.1/DTD/svg11.dtd">
<svg width="100%" height="100%" viewBox="0 0 667 667" version="1.1" xmlns="http://www.w3.org/2000/svg" xmlns:xlink="http://www.w3.org/1999/xlink" xml:space="preserve" xmlns:serif="http://www.serif.com/" style="fill-rule:evenodd;clip-rule:evenodd;stroke-linejoin:round;stroke-miterlimit:2;">
    <g transform="matrix(1.33333,0,0,1.33333,0,0)">
        <g transform="matrix(1,0,0,1,63.9502,297.817)">
            <g id="Background">
                <path d="M0,-153.588C2.377,-150.548 6.286,-148.497 10.047,-149.241C13.53,-149.93 16.162,-152.744 18.503,-155.443C27.156,-165.419 35.277,-175.867 42.818,-186.727C49.383,-196.183 58.659,-206.864 50.034,-217.872C36.669,-234.932 13.768,-216.966 4.809,-203.919C-3.013,-192.526 -6.266,-178.019 -4.068,-164.327C-3.454,-160.501 -2.377,-156.628 0,-153.588M275.872,-138.746C264.724,-165.829 246.558,-190.078 222.941,-207.84C200.541,-224.688 168.671,-229.529 140.528,-225.319C112.498,-221.126 77.734,-204.371 59.943,-181.575C43.097,-159.99 33.338,-141.162 15.261,-120.381C-0.899,-101.804 -12.447,-87.96 -22.496,-64.664C-25.241,-58.3 -26.927,-51.566 -27.649,-44.705C-29.382,-28.255 -25.576,-11.08 -17.552,3.458C-6.181,24.058 14.118,43.429 35.325,53.253C83.542,75.588 128.011,81.344 194.666,56.104C228.599,43.255 259.767,19.669 275.017,-13.579C293.456,-53.777 292.12,-99.272 275.872,-138.746" style="fill:rgb(26,46,53);fill-rule:nonzero;"/>
            </g>
        </g>
        <g id="Stars">
            <g opacity="0.8">
                <g transform="matrix(1,0,0,1,436.076,258.077)">
                    <path d="M0,-21.291C-5.803,-21.291 -10.523,-16.516 -10.523,-10.646C-10.523,-4.776 -5.803,0 0,0C5.803,0 10.524,-4.776 10.524,-10.646C10.524,-16.516 5.803,-21.291 0,-21.291M0,0.685C-6.177,0.685 -11.201,-4.398 -11.201,-10.646C-11.201,-16.894 -6.177,-21.976 0,-21.976C6.176,-21.976 11.202,-16.894 11.202,-10.646C11.202,-4.398 6.176,0.685 0,0.685" style="fill:rgb(210,104,204);fill-rule:nonzero;"/>
                </g>
            </g>
            <g transform="matrix(0,-1,-1,0,436.077,244.245)">
                <path d="M-3.186,-3.186C-4.966,-3.186 -6.409,-1.759 -6.409,0C-6.409,1.76 -4.966,3.186 -3.186,3.186C-1.406,3.186 0.037,1.76 0.037,0C0.037,-1.759 -1.406,-3.186 -3.186,-3.186" style="fill:rgb(210,104,204);fill-rule:nonzero;"/>
            </g>
            <g opacity="0.7">
                <g transform="matrix(0,-1,-1,0,436.077,244.245)">
                    <path d="M-3.186,-3.186C-4.966,-3.186 -6.409,-1.759 -6.409,0C-6.409,1.76 -4.966,3.186 -3.186,3.186C-1.406,3.186 0.037,1.76 0.037,0C0.037,-1.759 -1.406,-3.186 -3.186,-3.186" style="fill:white;fill-rule:nonzero;"/>
                </g>
            </g>
            <g opacity="0.8">
                <g transform="matrix(1,0,0,1,351.868,77.9244)">
                    <path d="M0,-14.596C-3.978,-14.596 -7.215,-11.321 -7.215,-7.298C-7.215,-3.274 -3.978,0 0,0C3.978,0 7.214,-3.274 7.214,-7.298C7.214,-11.321 3.978,-14.596 0,-14.596M0,0.685C-4.353,0.685 -7.892,-2.896 -7.892,-7.298C-7.892,-11.7 -4.353,-15.281 0,-15.281C4.352,-15.281 7.891,-11.7 7.891,-7.298C7.891,-2.896 4.352,0.685 0,0.685" style="fill:rgb(210,104,204);fill-rule:nonzero;"/>
                </g>
            </g>
            <g transform="matrix(0,-1,-1,0,351.868,68.4111)">
                <path d="M-2.216,-2.216C-3.454,-2.216 -4.457,-1.224 -4.457,0C-4.457,1.223 -3.454,2.216 -2.216,2.216C-0.978,2.216 0.025,1.223 0.025,0C0.025,-1.224 -0.978,-2.216 -2.216,-2.216" style="fill:rgb(210,104,204);fill-rule:nonzero;"/>
            </g>
            <g opacity="0.7">
                <g transform="matrix(0,-1,-1,0,351.868,68.4111)">
                    <path d="M-2.216,-2.216C-3.454,-2.216 -4.457,-1.224 -4.457,0C-4.457,1.223 -3.454,2.216 -2.216,2.216C-0.978,2.216 0.025,1.223 0.025,0C0.025,-1.224 -0.978,-2.216 -2.216,-2.216" style="fill:white;fill-rule:nonzero;"/>
                </g>
            </g>
            <g opacity="0.8">
                <g transform="matrix(1,0,0,1,68.8464,392.01)">
                    <path d="M0,-15.549C-4.238,-15.549 -7.686,-12.061 -7.686,-7.774C-7.686,-3.487 -4.238,-0 0,-0C4.238,-0 7.686,-3.487 7.686,-7.774C7.686,-12.061 4.238,-15.549 0,-15.549M0,0.685C-4.611,0.685 -8.363,-3.109 -8.363,-7.774C-8.363,-12.439 -4.611,-16.234 0,-16.234C4.611,-16.234 8.363,-12.439 8.363,-7.774C8.363,-3.109 4.611,0.685 0,0.685" style="fill:rgb(210,104,204);fill-rule:nonzero;"/>
                </g>
            </g>
            <g transform="matrix(0,-1,-1,0,68.8459,381.881)">
                <path d="M-2.354,-2.354C-3.669,-2.354 -4.735,-1.3 -4.735,-0C-4.735,1.3 -3.669,2.354 -2.354,2.354C-1.039,2.354 0.027,1.3 0.027,-0C0.027,-1.3 -1.039,-2.354 -2.354,-2.354" style="fill:rgb(210,104,204);fill-rule:nonzero;"/>
            </g>
            <g opacity="0.7">
                <g transform="matrix(0,-1,-1,0,68.8459,381.881)">
                    <path d="M-2.354,-2.354C-3.669,-2.354 -4.735,-1.3 -4.735,-0C-4.735,1.3 -3.669,2.354 -2.354,2.354C-1.039,2.354 0.027,1.3 0.027,-0C0.027,-1.3 -1.039,-2.354 -2.354,-2.354" style="fill:white;fill-rule:nonzero;"/>
                </g>
            </g>
            <g transform="matrix(0,-1,-1,0,439.54,98.0368)">
                <path d="M-2.316,-2.316C-3.61,-2.316 -4.659,-1.279 -4.659,-0C-4.659,1.279 -3.61,2.316 -2.316,2.316C-1.022,2.316 0.027,1.279 0.027,-0C0.027,-1.279 -1.022,-2.316 -2.316,-2.316" style="fill:rgb(210,104,204);fill-rule:nonzero;"/>
            </g>
            <g opacity="0.7">
                <g transform="matrix(0,-1,-1,0,439.54,98.0368)">
                    <path d="M-2.316,-2.316C-3.61,-2.316 -4.659,-1.279 -4.659,-0C-4.659,1.279 -3.61,2.316 -2.316,2.316C-1.022,2.316 0.027,1.279 0.027,-0C0.027,-1.279 -1.022,-2.316 -2.316,-2.316" style="fill:white;fill-rule:nonzero;"/>
                </g>
            </g>
            <g transform="matrix(0,-1,-1,0,433.553,105.372)">
                <path d="M-1.382,-1.382C-2.154,-1.382 -2.78,-0.763 -2.78,0C-2.78,0.763 -2.154,1.382 -1.382,1.382C-0.61,1.382 0.016,0.763 0.016,0C0.016,-0.763 -0.61,-1.382 -1.382,-1.382" style="fill:rgb(210,104,204);fill-rule:nonzero;"/>
            </g>
            <g opacity="0.7">
                <g transform="matrix(0,-1,-1,0,433.553,105.372)">
                    <path d="M-1.382,-1.382C-2.154,-1.382 -2.78,-0.763 -2.78,0C-2.78,0.763 -2.154,1.382 -1.382,1.382C-0.61,1.382 0.016,0.763 0.016,0C0.016,-0.763 -0.61,-1.382 -1.382,-1.382" style="fill:white;fill-rule:nonzero;"/>
                </g>
            </g>
            <g transform="matrix(0,-1,-1,0,429.9,96.8959)">
                <path d="M-1.114,-1.115C-1.737,-1.115 -2.242,-0.616 -2.242,-0C-2.242,0.615 -1.737,1.114 -1.114,1.114C-0.492,1.114 0.013,0.615 0.013,-0C0.013,-0.616 -0.492,-1.115 -1.114,-1.115" style="fill:rgb(210,104,204);fill-rule:nonzero;"/>
            </g>
            <g opacity="0.8">
                <g transform="matrix(0,-1,-1,0,429.9,96.8959)">
                    <path d="M-1.114,-1.115C-1.737,-1.115 -2.242,-0.616 -2.242,-0C-2.242,0.615 -1.737,1.114 -1.114,1.114C-0.492,1.114 0.013,0.615 0.013,-0C0.013,-0.616 -0.492,-1.115 -1.114,-1.115" style="fill:white;fill-rule:nonzero;"/>
                </g>
            </g>
            <g transform="matrix(0,-1,-1,0,46.6424,170.568)">
                <path d="M-2.316,-2.316C-3.61,-2.316 -4.659,-1.279 -4.659,-0C-4.659,1.279 -3.61,2.316 -2.316,2.316C-1.022,2.316 0.027,1.279 0.027,-0C0.027,-1.279 -1.022,-2.316 -2.316,-2.316" style="fill:rgb(210,104,204);fill-rule:nonzero;"/>
            </g>
            <g opacity="0.7">
                <g transform="matrix(0,-1,-1,0,46.6424,170.568)">
                    <path d="M-2.316,-2.316C-3.61,-2.316 -4.659,-1.279 -4.659,-0C-4.659,1.279 -3.61,2.316 -2.316,2.316C-1.022,2.316 0.027,1.279 0.027,-0C0.027,-1.279 -1.022,-2.316 -2.316,-2.316" style="fill:white;fill-rule:nonzero;"/>
                </g>
            </g>
            <g transform="matrix(0,-1,-1,0,40.6556,177.903)">
                <path d="M-1.382,-1.382C-2.154,-1.382 -2.78,-0.763 -2.78,0C-2.78,0.763 -2.154,1.382 -1.382,1.382C-0.61,1.382 0.016,0.763 0.016,0C0.016,-0.763 -0.61,-1.382 -1.382,-1.382" style="fill:rgb(210,104,204);fill-rule:nonzero;"/>
            </g>
            <g opacity="0.7">
                <g transform="matrix(0,-1,-1,0,40.6556,177.903)">
                    <path d="M-1.382,-1.382C-2.154,-1.382 -2.78,-0.763 -2.78,0C-2.78,0.763 -2.154,1.382 -1.382,1.382C-0.61,1.382 0.016,0.763 0.016,0C0.016,-0.763 -0.61,-1.382 -1.382,-1.382" style="fill:white;fill-rule:nonzero;"/>
                </g>
            </g>
            <g transform="matrix(0,-1,-1,0,37.003,169.427)">
                <path d="M-1.114,-1.115C-1.737,-1.115 -2.242,-0.616 -2.242,-0.001C-2.242,0.615 -1.737,1.114 -1.114,1.114C-0.492,1.114 0.013,0.615 0.013,-0.001C0.013,-0.616 -0.492,-1.115 -1.114,-1.115" style="fill:rgb(210,104,204);fill-rule:nonzero;"/>
            </g>
            <g opacity="0.8">
                <g transform="matrix(0,-1,-1,0,37.003,169.427)">
                    <path d="M-1.114,-1.115C-1.737,-1.115 -2.242,-0.616 -2.242,-0.001C-2.242,0.615 -1.737,1.114 -1.114,1.114C-0.492,1.114 0.013,0.615 0.013,-0.001C0.013,-0.616 -0.492,-1.115 -1.114,-1.115" style="fill:white;fill-rule:nonzero;"/>
                </g>
            </g>
            <g transform="matrix(0,-1,-1,0,252.742,408.593)">
                <path d="M-2.316,-2.316C-3.61,-2.316 -4.659,-1.279 -4.659,-0C-4.659,1.279 -3.61,2.316 -2.316,2.316C-1.022,2.316 0.027,1.279 0.027,-0C0.027,-1.279 -1.022,-2.316 -2.316,-2.316" style="fill:rgb(210,104,204);fill-rule:nonzero;"/>
            </g>
            <g opacity="0.7">
                <g transform="matrix(0,-1,-1,0,252.742,408.593)">
                    <path d="M-2.316,-2.316C-3.61,-2.316 -4.659,-1.279 -4.659,-0C-4.659,1.279 -3.61,2.316 -2.316,2.316C-1.022,2.316 0.027,1.279 0.027,-0C0.027,-1.279 -1.022,-2.316 -2.316,-2.316" style="fill:white;fill-rule:nonzero;"/>
                </g>
            </g>
            <g transform="matrix(0,-1,-1,0,246.755,415.928)">
                <path d="M-1.382,-1.382C-2.154,-1.382 -2.78,-0.763 -2.78,0C-2.78,0.764 -2.154,1.382 -1.382,1.382C-0.61,1.382 0.016,0.764 0.016,0C0.016,-0.763 -0.61,-1.382 -1.382,-1.382" style="fill:rgb(210,104,204);fill-rule:nonzero;"/>
            </g>
            <g opacity="0.7">
                <g transform="matrix(0,-1,-1,0,246.755,415.928)">
                    <path d="M-1.382,-1.382C-2.154,-1.382 -2.78,-0.763 -2.78,0C-2.78,0.764 -2.154,1.382 -1.382,1.382C-0.61,1.382 0.016,0.764 0.016,0C0.016,-0.763 -0.61,-1.382 -1.382,-1.382" style="fill:white;fill-rule:nonzero;"/>
                </g>
            </g>
            <g transform="matrix(0,-1,-1,0,243.102,407.452)">
                <path d="M-1.114,-1.115C-1.737,-1.115 -2.242,-0.616 -2.242,-0C-2.242,0.615 -1.737,1.114 -1.114,1.114C-0.492,1.114 0.013,0.615 0.013,-0C0.013,-0.616 -0.492,-1.115 -1.114,-1.115" style="fill:rgb(210,104,204);fill-rule:nonzero;"/>
            </g>
            <g opacity="0.8">
                <g transform="matrix(0,-1,-1,0,243.102,407.452)">
                    <path d="M-1.114,-1.115C-1.737,-1.115 -2.242,-0.616 -2.242,-0C-2.242,0.615 -1.737,1.114 -1.114,1.114C-0.492,1.114 0.013,0.615 0.013,-0C0.013,-0.616 -0.492,-1.115 -1.114,-1.115" style="fill:white;fill-rule:nonzero;"/>
                </g>
            </g>
            <g transform="matrix(0.0488967,0.998804,0.998804,-0.0488967,393.128,232.081)">
                <path d="M1.675,-1.595C2.612,-1.596 3.372,-0.846 3.371,0.08C3.371,1.006 2.611,1.758 1.675,1.759C0.738,1.76 -0.022,1.01 -0.021,0.084C-0.021,-0.842 0.738,-1.594 1.675,-1.595" style="fill:rgb(210,104,204);fill-rule:nonzero;"/>
            </g>
            <g opacity="0.7">
                <g transform="matrix(0.0488967,0.998804,0.998804,-0.0488967,393.128,232.081)">
                    <path d="M1.675,-1.595C2.612,-1.596 3.372,-0.846 3.371,0.08C3.371,1.006 2.611,1.758 1.675,1.759C0.738,1.76 -0.022,1.01 -0.021,0.084C-0.021,-0.842 0.738,-1.594 1.675,-1.595" style="fill:white;fill-rule:nonzero;"/>
                </g>
            </g>
            <g transform="matrix(-0.731932,0.681378,0.681378,0.731932,389.688,241.765)">
                <path d="M0.621,-1.576C0.119,-1.581 -0.288,-1.179 -0.289,-0.678C-0.289,-0.175 0.118,0.238 0.621,0.244C1.122,0.249 1.529,-0.153 1.53,-0.656C1.529,-1.158 1.122,-1.57 0.621,-1.576" style="fill:rgb(210,104,204);fill-rule:nonzero;"/>
            </g>
            <g opacity="0.8">
                <g transform="matrix(-0.731932,0.681378,0.681378,0.731932,389.688,241.765)">
                    <path d="M0.621,-1.576C0.119,-1.581 -0.288,-1.179 -0.289,-0.678C-0.289,-0.175 0.118,0.238 0.621,0.244C1.122,0.249 1.529,-0.153 1.53,-0.656C1.529,-1.158 1.122,-1.57 0.621,-1.576" style="fill:white;fill-rule:nonzero;"/>
                </g>
            </g>
            <g transform="matrix(-0.474596,0.880204,0.880204,0.474596,161.499,60.031)">
                <path d="M1.479,-2.48C2.414,-2.471 3.171,-1.711 3.171,-0.782C3.171,0.146 2.414,0.892 1.479,0.883C0.544,0.874 -0.213,0.114 -0.213,-0.814C-0.212,-1.743 0.544,-2.488 1.479,-2.48" style="fill:rgb(210,104,204);fill-rule:nonzero;"/>
            </g>
            <g opacity="0.7">
                <g transform="matrix(-0.474596,0.880204,0.880204,0.474596,161.499,60.031)">
                    <path d="M1.479,-2.48C2.414,-2.471 3.171,-1.711 3.171,-0.782C3.171,0.146 2.414,0.892 1.479,0.883C0.544,0.874 -0.213,0.114 -0.213,-0.814C-0.212,-1.743 0.544,-2.488 1.479,-2.48" style="fill:white;fill-rule:nonzero;"/>
                </g>
            </g>
            <g transform="matrix(-0.976978,0.213338,0.213338,0.976978,152.572,66.2701)">
                <path d="M0.195,-1.807C-0.305,-1.809 -0.709,-1.402 -0.71,-0.897C-0.71,-0.392 -0.305,0.019 0.195,0.021C0.695,0.023 1.1,-0.383 1.1,-0.889C1.1,-1.394 0.695,-1.805 0.195,-1.807" style="fill:rgb(210,104,204);fill-rule:nonzero;"/>
            </g>
            <g opacity="0.8">
                <g transform="matrix(-0.976978,0.213338,0.213338,0.976978,152.572,66.2701)">
                    <path d="M0.195,-1.807C-0.305,-1.809 -0.709,-1.402 -0.71,-0.897C-0.71,-0.392 -0.305,0.019 0.195,0.021C0.695,0.023 1.1,-0.383 1.1,-0.889C1.1,-1.394 0.695,-1.805 0.195,-1.807" style="fill:white;fill-rule:nonzero;"/>
                </g>
            </g>
            <g transform="matrix(0.999966,-0.008252,-0.008252,-0.999966,464.674,282.395)">
                <path d="M-0.014,-0C0.912,0 1.663,0.759 1.663,1.696C1.663,2.633 0.912,3.392 -0.014,3.393C-0.94,3.393 -1.69,2.633 -1.691,1.696C-1.691,0.759 -0.94,-0 -0.014,-0" style="fill:rgb(210,104,204);fill-rule:nonzero;"/>
            </g>
            <g opacity="0.7">
                <g transform="matrix(0.999966,-0.008252,-0.008252,-0.999966,464.674,282.395)">
                    <path d="M-0.014,-0C0.912,0 1.663,0.759 1.663,1.696C1.663,2.633 0.912,3.392 -0.014,3.393C-0.94,3.393 -1.69,2.633 -1.691,1.696C-1.691,0.759 -0.94,-0 -0.014,-0" style="fill:white;fill-rule:nonzero;"/>
                </g>
            </g>
            <g transform="matrix(0.660256,0.751041,0.751041,-0.660256,471.416,285.462)">
                <path d="M0.682,-0.309C0.179,-0.303 -0.228,0.108 -0.228,0.61C-0.228,1.112 0.18,1.515 0.682,1.509C1.185,1.504 1.593,1.092 1.593,0.59C1.593,0.088 1.185,-0.314 0.682,-0.309" style="fill:rgb(210,104,204);fill-rule:nonzero;"/>
            </g>
            <g opacity="0.8">
                <g transform="matrix(0.660256,0.751041,0.751041,-0.660256,471.416,285.462)">
                    <path d="M0.682,-0.309C0.179,-0.303 -0.228,0.108 -0.228,0.61C-0.228,1.112 0.18,1.515 0.682,1.509C1.185,1.504 1.593,1.092 1.593,0.59C1.593,0.088 1.185,-0.314 0.682,-0.309" style="fill:white;fill-rule:nonzero;"/>
                </g>
            </g>
            <g transform="matrix(0.660256,0.751041,0.751041,-0.660256,470.854,276.989)">
                <path d="M0.682,-0.309C0.18,-0.304 -0.228,0.108 -0.228,0.61C-0.228,1.112 0.18,1.515 0.682,1.509C1.185,1.504 1.593,1.092 1.593,0.59C1.593,0.088 1.185,-0.314 0.682,-0.309" style="fill:rgb(210,104,204);fill-rule:nonzero;"/>
            </g>
            <g opacity="0.8">
                <g transform="matrix(0.660256,0.751041,0.751041,-0.660256,470.854,276.989)">
                    <path d="M0.682,-0.309C0.18,-0.304 -0.228,0.108 -0.228,0.61C-0.228,1.112 0.18,1.515 0.682,1.509C1.185,1.504 1.593,1.092 1.593,0.59C1.593,0.088 1.185,-0.314 0.682,-0.309" style="fill:white;fill-rule:nonzero;"/>
                </g>
            </g>
        </g>
        <g id="Planets">
            <g transform="matrix(-0.975989,0.217819,0.217819,0.975989,402.897,410.939)">
                <path d="M10.882,-98.714C-16.423,-98.848 -38.559,-76.591 -38.558,-49.001C-38.558,-21.41 -16.423,1.065 10.882,1.2C38.186,1.334 60.322,-20.923 60.322,-48.513C60.322,-76.103 38.186,-98.579 10.882,-98.714" style="fill:rgb(210,104,204);fill-rule:nonzero;"/>
            </g>
            <g opacity="0.75">
                <g transform="matrix(-0.975989,0.217819,0.217819,0.975989,402.897,410.939)">
                    <path d="M10.882,-98.714C-16.423,-98.848 -38.559,-76.591 -38.558,-49.001C-38.558,-21.41 -16.423,1.065 10.882,1.2C38.186,1.334 60.322,-20.923 60.322,-48.513C60.322,-76.103 38.186,-98.579 10.882,-98.714" style="fill:white;fill-rule:nonzero;"/>
                </g>
            </g>
            <g opacity="0.2">
                <g transform="matrix(1,0,0,1,341.088,335.893)">
                    <path d="M0,36.892C4.051,36.205 8.068,35.31 12.05,34.291C16.022,33.274 19.958,32.113 23.848,30.812C27.825,29.482 31.899,27.45 36.157,27.422C39.872,27.398 43.411,27.956 47.13,27.392C50.78,26.839 54.309,25.655 57.632,24.036C64.558,20.661 70.302,15.4 75.412,9.673C77.59,7.232 79.665,4.697 81.704,2.135C80.946,0.982 80.152,-0.141 79.307,-1.218C77.215,1.407 75.111,4.023 72.906,6.553C68.278,11.862 63.086,16.84 56.865,20.185C53.673,21.901 50.253,23.186 46.677,23.776C42.901,24.399 39.237,23.621 35.465,23.756C31.581,23.896 28.01,25.46 24.401,26.752C20.781,28.048 17.116,29.217 13.416,30.259C9.134,31.466 4.807,32.464 0.455,33.372C-2.241,33.934 -4.952,34.394 -7.666,34.849C-7.966,34.899 -8.269,34.947 -8.571,34.995C-8.463,36.031 -8.332,37.07 -8.158,38.11C-5.41,37.877 -2.648,37.341 0,36.892" style="fill:rgb(210,104,204);fill-rule:nonzero;"/>
                </g>
                <g transform="matrix(1,0,0,1,346.466,319.201)">
                    <path d="M0,41.37C6.259,40.175 12.281,37.974 17.936,35.024C23.333,32.208 28.632,27.779 35.155,28.726C39.756,29.394 45.659,28.918 49.778,26.584C55.426,23.383 60.872,19.162 64.931,14.046C66.083,12.594 67.426,11.207 68.648,9.748C67.651,8.821 66.622,7.931 65.555,7.091C65.27,7.451 64.987,7.805 64.702,8.13C63.681,9.296 62.635,10.443 61.59,11.587C59.316,14.076 57.287,16.718 54.507,18.663C51.566,20.719 48.378,22.657 44.979,23.837C43.057,24.505 37.38,25.995 36.043,23.516C35.689,22.86 36.251,22.098 36.773,21.569C41.175,17.102 45.858,12.882 49.445,7.705C50.342,6.411 51.252,5.089 51.722,3.582C52.039,2.563 52.145,1.489 52.195,0.422C52.208,0.14 52.193,-0.139 52.163,-0.412C51.3,-0.732 50.428,-1.028 49.546,-1.3C49.522,-1.196 49.496,-1.105 49.475,-0.989C48.81,2.588 45.661,6.508 43.505,9.355C40.481,13.348 36.673,16.646 32.881,19.863C23.834,27.536 13.775,33.834 2.227,36.87C-3.051,38.257 -8.259,38.582 -13.583,38.513C-13.778,39.723 -13.935,40.942 -14.041,42.173C-9.376,42.67 -4.542,42.237 0,41.37" style="fill:rgb(210,104,204);fill-rule:nonzero;"/>
                </g>
                <g transform="matrix(1,0,0,1,361.499,323.202)">
                    <path d="M0,20.561C8.893,16.726 17.854,11.434 24.528,4.253C26.199,2.454 27.692,0.473 28.835,-1.713C29.521,-3.024 30.301,-4.706 30.555,-6.344C29.795,-6.51 29.029,-6.659 28.259,-6.789C28.224,-6.668 28.194,-6.55 28.153,-6.427C27.827,-5.449 27.42,-4.502 26.95,-3.587C25.932,-1.608 24.623,0.196 23.151,1.853C20.069,5.321 16.341,8.093 12.491,10.622C4.028,16.179 -5.241,20.374 -15.067,22.761C-18.65,23.632 -22.316,24.278 -25.999,24.678C-26.332,25.558 -26.636,26.45 -26.92,27.35C-17.66,26.475 -8.585,24.263 0,20.561" style="fill:rgb(210,104,204);fill-rule:nonzero;"/>
                </g>
                <g transform="matrix(1,0,0,1,342.701,315.758)">
                    <path d="M0,23.349C3.071,23.313 6.121,22.904 9.103,22.168C14.807,20.76 20.154,18.305 25.266,15.419C30.349,12.55 35.714,9.519 40.051,5.549C41.721,4.019 43.197,2.261 44.306,0.275C42.871,0.117 41.423,0.018 39.965,-0.011C38.723,1.662 37.193,3.139 35.583,4.422C31.385,7.768 26.589,10.593 21.889,13.15C17.218,15.692 12.298,17.887 7.096,19.031C4.595,19.581 2.026,19.917 -0.536,19.94C-1.334,21.015 -2.099,22.116 -2.809,23.252C-1.874,23.318 -0.937,23.36 0,23.349" style="fill:rgb(210,104,204);fill-rule:nonzero;"/>
                </g>
                <g transform="matrix(1,0,0,1,427.225,408.49)">
                    <path d="M0,-31.741C-3.359,-26.259 -7.497,-21.287 -12.322,-17.068C-17.041,-12.942 -23.04,-8.522 -29.581,-8.657C-32.925,-8.725 -35.632,-10.927 -38.974,-11.006C-42.586,-11.091 -46.008,-9.326 -49.316,-8.091C-53.522,-6.522 -57.788,-5.16 -62.136,-4.05C-66.057,-3.05 -70.096,-2.345 -74.146,-1.997C-72.817,-1.044 -71.443,-0.156 -70.029,0.66C-65.952,0.289 -61.905,-0.458 -57.953,-1.526C-54.027,-2.585 -50.167,-3.884 -46.354,-5.3C-44.602,-5.95 -42.867,-6.689 -41.043,-7.115C-39.731,-7.422 -33.866,-6.899 -34.627,-4.888C-35.083,-3.685 -37.577,-2.953 -38.605,-2.408C-40.138,-1.593 -41.659,-0.757 -43.18,0.08C-46.592,1.955 -50.016,3.842 -53.565,5.443C-54.168,5.716 -54.781,5.965 -55.393,6.216C-53.582,6.589 -51.744,6.867 -49.883,7.031C-47.053,5.74 -44.305,4.279 -41.57,2.787C-37.183,0.395 -32.514,-1.817 -27.9,-3.888C-23.256,-5.973 -18.453,-7.685 -14.265,-10.602C-8.405,-14.684 -3.268,-19.973 0.898,-25.792L0.899,-25.792C2.382,-29.934 3.345,-34.291 3.699,-38.772C2.613,-36.353 1.385,-34.001 0,-31.741" style="fill:rgb(210,104,204);fill-rule:nonzero;"/>
                </g>
                <g transform="matrix(1,0,0,1,367.167,381.314)">
                    <path d="M0,-8.637C-3.739,-6.362 -7.801,-4.489 -11.906,-3.003C-15.831,-1.581 -19.878,-0.488 -23.939,0.454C-26.279,0.998 -28.637,1.458 -30.998,1.9C-31.246,1.947 -31.492,1.997 -31.738,2.044C-31.359,3.064 -30.96,4.073 -30.52,5.056C-28.271,4.792 -26.037,4.436 -23.811,4.022C-19.325,3.186 -14.917,2.036 -10.617,0.49C-6.364,-1.038 -2.295,-2.91 1.555,-5.295C5.207,-7.558 8.509,-10.518 12.682,-11.768C13.146,-11.907 12.904,-12.795 12.503,-12.866C7.829,-13.693 3.827,-10.966 0,-8.637" style="fill:rgb(210,104,204);fill-rule:nonzero;"/>
                </g>
                <g transform="matrix(1,0,0,1,384.798,357.249)">
                    <path d="M0,31.124C7.323,27.486 14.427,23.267 21.282,18.795C27.933,14.456 33.971,9.523 38.919,3.231C40.927,0.677 42.738,-2.037 44.497,-4.78C44.059,-6.397 43.545,-7.973 42.962,-9.509C41.037,-6.557 39.075,-3.629 36.956,-0.816C32.368,5.273 27.045,10.295 20.769,14.573C14.497,18.849 7.866,22.731 1.168,26.28C-5.614,29.874 -12.681,32.978 -20.138,34.816C-24.047,35.779 -28.018,36.464 -32.041,36.658C-36.2,36.858 -40.286,36.539 -44.376,36.022C-43.67,37.102 -42.927,38.151 -42.145,39.166C-35.888,40.633 -29.168,40.239 -22.916,39.145C-14.928,37.747 -7.253,34.727 0,31.124" style="fill:rgb(210,104,204);fill-rule:nonzero;"/>
                </g>
                <g transform="matrix(1,0,0,1,394.836,347.152)">
                    <path d="M0,23.029C-3.945,25.46 -8.053,27.948 -12.349,29.679C-12.486,29.734 -12.479,30.106 -12.306,30.054C-7.869,28.707 -3.584,27.351 0.54,25.174C4.481,23.095 8.274,20.647 11.746,17.838C18.47,12.399 24.355,5.904 29.055,-1.396C29.658,-2.333 30.234,-3.287 30.796,-4.248C30.307,-5.214 29.779,-6.153 29.233,-7.077C22.308,5.311 12.064,15.594 0,23.029" style="fill:rgb(210,104,204);fill-rule:nonzero;"/>
                </g>
                <g transform="matrix(1,0,0,1,428.357,388.09)">
                    <path d="M0,-26.254C-2.548,-22.548 -5.425,-19.073 -8.311,-15.635C-11.525,-11.806 -14.979,-8.428 -19.089,-5.593C-21.042,-4.245 -23.059,-2.994 -25.089,-1.77C-26.296,-1.042 -27.561,-0.42 -28.757,0.327C-29.834,0.999 -31.127,1.435 -32.115,2.217C-32.478,2.504 -32.151,3.505 -31.669,3.455C-30.453,3.329 -29.379,2.767 -28.208,2.45C-27.026,2.131 -25.894,1.771 -24.753,1.309C-22.178,0.267 -19.71,-0.898 -17.341,-2.363C-12.785,-5.181 -8.924,-8.929 -5.453,-13.004C-2.626,-16.325 0.212,-19.716 2.713,-23.312C2.671,-25.447 2.477,-27.6 2.155,-29.759C1.486,-28.56 0.778,-27.385 0,-26.254" style="fill:rgb(210,104,204);fill-rule:nonzero;"/>
                </g>
            </g>
            <g opacity="0.3">
                <g transform="matrix(1,0,0,1,378.137,415.889)">
                    <path d="M0,-100.029C18.613,-100.496 42.225,-71.723 37.009,-43.148C31.463,-12.767 -4.405,0.907 -24.219,-8.822L-24.236,-8.817C-13.32,-1.322 0.517,1.762 14.401,-1.409C41.021,-7.488 57.729,-34.246 51.72,-61.173C46.265,-85.612 23.974,-101.791 0,-100.029" style="fill:rgb(210,104,204);fill-rule:nonzero;"/>
                </g>
            </g>
            <g opacity="0.2">
                <g transform="matrix(1,0,0,1,392.538,319.587)">
                    <path d="M0,94.893C26.62,88.814 43.328,62.057 37.319,35.129C33.408,17.608 20.842,4.333 5.208,-1.129C7.151,-0.419 31.674,8.473 33.114,43.973C34.613,80.928 0.012,94.888 -7.69,96.022C-5.141,95.852 -2.571,95.48 0,94.893" style="fill:rgb(210,104,204);fill-rule:nonzero;"/>
                </g>
            </g>
            <g opacity="0.4">
                <g transform="matrix(1,0,0,1,373.96,357.371)">
                    <path d="M0,-9.659C-3.279,-8.91 -5.337,-5.614 -4.597,-2.298C-3.857,1.019 -0.598,3.101 2.681,2.352C5.959,1.603 8.017,-1.693 7.277,-5.009C6.537,-8.326 3.279,-10.408 0,-9.659M-25.018,-9.346C-32.177,-7.711 -36.67,-0.515 -35.054,6.726C-33.438,13.968 -26.324,18.514 -19.165,16.879C-12.006,15.244 -7.513,8.048 -9.129,0.806C-10.746,-6.436 -17.859,-10.981 -25.018,-9.346M-4.304,-21.317C-5.245,-25.529 -9.382,-28.173 -13.546,-27.222C-17.71,-26.271 -20.324,-22.085 -19.384,-17.873C-18.444,-13.661 -14.306,-11.017 -10.142,-11.968C-5.978,-12.919 -3.364,-17.105 -4.304,-21.317" style="fill:white;fill-rule:nonzero;"/>
                </g>
            </g>
            <g opacity="0.6">
                <g transform="matrix(1,0,0,1,354.912,321.67)">
                    <path d="M0,87.569C0.597,87.405 1.204,87.233 1.814,87.043C28.057,79.283 60.014,55.284 74.951,32.119C75.315,31.594 75.645,31.046 75.984,30.507C90.783,6.325 80.754,-7.34 53.586,0.01C52.886,0.204 52.176,0.406 51.463,0.626C53.677,1.899 55.785,3.346 57.779,4.958C66.941,5.196 71.268,10.327 69.643,18.807C68.978,22.322 67.299,26.391 64.521,30.94C52.674,50.301 25.465,70.734 3.716,76.603C-1.382,77.969 -5.719,78.416 -9.229,78.054C-17.734,77.181 -21.345,71.496 -18.919,62.556C-19.488,61.121 -19.99,59.651 -20.431,58.136C-20.717,57.151 -20.975,56.161 -21.188,55.169C-21.602,55.796 -22.009,56.433 -22.387,57.064C-37.204,81.244 -27.176,94.909 0,87.569" style="fill:rgb(210,104,204);fill-rule:nonzero;"/>
                </g>
            </g>
            <g opacity="0.7">
                <g transform="matrix(1,0,0,1,351.16,314.837)">
                    <path d="M0,108.252C6.927,106.38 14.199,103.555 21.545,99.979C42.543,89.813 64.159,73.58 79.866,56.182C85.375,50.104 90.153,43.88 93.928,37.714C112.223,7.814 99.827,-9.077 66.229,-0.007C61.334,1.317 56.244,3.119 51.077,5.327C52.077,5.775 53.069,6.277 54.021,6.809C55.653,6.246 57.274,5.755 58.877,5.325C87.264,-2.341 97.741,11.934 82.283,37.195C81.363,38.707 80.364,40.215 79.291,41.73C63.639,64.091 33.677,86.576 8.015,95.257C6.291,95.841 4.568,96.362 2.889,96.818C-25.508,104.491 -35.985,90.216 -20.507,64.939C-19.645,63.519 -18.704,62.102 -17.717,60.683C-17.943,59.589 -18.125,58.511 -18.26,57.413C-21.842,61.76 -25.02,66.167 -27.689,70.523C-46.004,100.439 -33.608,117.329 0,108.252" style="fill:rgb(210,104,204);fill-rule:nonzero;"/>
                </g>
            </g>
            <g transform="matrix(1,0,0,1,413.431,418.43)">
                <path d="M0,-100.034C4.791,-101.239 9.718,-102.054 14.649,-101.87C17.106,-101.761 19.559,-101.402 21.886,-100.636C24.2,-99.864 26.42,-98.703 28.154,-96.984C29.899,-95.289 31.174,-93.133 31.859,-90.787C32.521,-88.43 32.646,-85.938 32.42,-83.49C31.965,-78.568 30.174,-73.855 27.978,-69.437C23.433,-60.625 17.197,-52.77 10.404,-45.576C3.585,-38.38 -3.899,-31.835 -11.811,-25.89C-19.726,-19.95 -28.081,-14.592 -36.863,-10.07C-45.634,-5.563 -54.871,-1.816 -64.522,0.07C-69.338,0.945 -74.302,1.356 -79.122,0.519C-81.52,0.102 -83.874,-0.638 -85.983,-1.846C-88.105,-3.028 -89.896,-4.781 -91.125,-6.884C-92.382,-8.978 -93.016,-11.426 -93.134,-13.891C-93.269,-16.361 -92.948,-18.85 -92.371,-21.268C-91.17,-26.108 -88.981,-30.651 -86.453,-34.941C-89.067,-30.705 -91.356,-26.203 -92.667,-21.345C-93.299,-18.917 -93.68,-16.401 -93.594,-13.869C-93.524,-11.344 -92.925,-8.793 -91.655,-6.572C-90.405,-4.348 -88.531,-2.488 -86.336,-1.229C-84.151,0.057 -81.722,0.849 -79.261,1.307C-74.312,2.225 -69.254,1.86 -64.352,1.029C-59.442,0.156 -54.646,-1.251 -49.986,-2.993C-45.321,-4.727 -40.778,-6.777 -36.349,-9.04C-27.483,-13.563 -19.052,-18.92 -11.064,-24.874C-3.123,-30.889 4.385,-37.505 11.228,-44.783C14.65,-48.416 17.903,-52.224 20.892,-56.241C23.884,-60.252 26.609,-64.486 28.835,-69.001C31.014,-73.518 32.791,-78.34 33.205,-83.421C33.409,-85.948 33.253,-88.534 32.531,-90.99C31.788,-93.433 30.426,-95.696 28.57,-97.434C26.722,-99.19 24.403,-100.337 22.024,-101.076C19.631,-101.81 17.138,-102.119 14.658,-102.178C9.683,-102.259 4.766,-101.338 0,-100.034" style="fill:rgb(210,104,204);fill-rule:nonzero;"/>
            </g>
            <g transform="matrix(1,0,0,1,417.56,405.647)">
                <path d="M0,-82.825C3.386,-82.651 6.871,-81.843 9.569,-79.735L10.56,-78.939L11.395,-77.979L11.812,-77.501C11.935,-77.329 12.032,-77.138 12.143,-76.958L12.791,-75.866C13.464,-74.314 13.944,-72.661 13.997,-70.955C14.21,-67.552 13.409,-64.153 12.221,-60.963C11.06,-57.741 9.335,-54.761 7.547,-51.851C3.824,-46.103 -0.61,-40.84 -5.423,-35.98C-10.225,-31.104 -15.423,-26.632 -20.872,-22.511C-26.313,-18.378 -32.03,-14.612 -37.994,-11.3C-43.972,-8.022 -50.189,-5.153 -56.681,-3.117C-59.927,-2.113 -63.249,-1.349 -66.615,-0.967C-69.971,-0.591 -73.416,-0.592 -76.683,-1.46C-77.479,-1.728 -78.323,-1.882 -79.069,-2.284L-80.219,-2.81C-80.584,-3.018 -80.926,-3.268 -81.282,-3.494C-82.028,-3.908 -82.587,-4.557 -83.221,-5.116C-83.522,-5.413 -83.743,-5.781 -84.009,-6.111C-84.265,-6.449 -84.538,-6.778 -84.704,-7.175C-86.363,-10.178 -86.556,-13.826 -85.915,-17.197C-86.633,-13.844 -86.541,-10.171 -84.917,-7.055C-84.757,-6.645 -84.486,-6.302 -84.232,-5.949C-83.968,-5.604 -83.747,-5.219 -83.446,-4.907C-82.811,-4.317 -82.244,-3.634 -81.491,-3.19C-81.131,-2.947 -80.782,-2.682 -80.411,-2.459L-79.242,-1.889C-78.48,-1.457 -77.626,-1.278 -76.811,-0.984C-73.471,-0.038 -69.962,0 -66.551,-0.333C-63.129,-0.674 -59.753,-1.403 -56.46,-2.374C-49.86,-4.314 -43.6,-7.235 -37.561,-10.493C-31.54,-13.802 -25.767,-17.563 -20.274,-21.704C-14.807,-25.876 -9.595,-30.401 -4.78,-35.334C0.033,-40.257 4.526,-45.554 8.191,-51.434C9.962,-54.405 11.67,-57.445 12.81,-60.741C13.972,-64.003 14.758,-67.487 14.481,-70.994C14.384,-72.747 13.849,-74.451 13.115,-76.033L12.421,-77.146C12.302,-77.328 12.197,-77.522 12.066,-77.695L11.626,-78.178L10.746,-79.142L9.713,-79.932C6.908,-82.014 3.388,-82.73 0,-82.825" style="fill:rgb(210,104,204);fill-rule:nonzero;"/>
            </g>
            <g opacity="0.1">
                <g transform="matrix(1,0,0,1,349.559,300.131)">
                    <path d="M0,137.63C12.717,134.254 26.503,128.112 40.059,120.139C54.708,111.543 69.08,100.844 81.555,89.247C93.102,78.515 103.016,67.015 109.986,55.723C113.264,50.397 115.845,45.228 117.639,40.377C124.208,22.621 119.535,12.122 114.452,6.425C105.89,-3.157 89.889,-5.442 69.402,-0.019C60.623,2.308 51.325,5.957 41.952,10.614C42.704,10.749 43.46,10.914 44.198,11.088C52.94,6.854 61.57,3.524 69.758,1.348C89.707,-3.948 105.212,-1.806 113.432,7.377C118.239,12.773 122.661,22.787 116.336,39.884C114.571,44.655 112.042,49.724 108.807,54.976C102.37,65.388 93.413,75.988 82.954,85.989C69.274,99.114 53.033,111.21 36.584,120.537C24.045,127.647 11.388,133.15 -0.343,136.268C-20.311,141.573 -35.815,139.431 -44.017,130.24C-48.842,124.852 -53.246,114.829 -46.931,97.759C-45.161,92.974 -42.627,87.892 -39.379,82.645C-34.909,75.381 -29.208,68.042 -22.632,60.868C-22.574,60.108 -22.498,59.341 -22.409,58.578C-29.579,66.233 -35.762,74.111 -40.559,81.898C-43.854,87.233 -46.43,92.389 -48.234,97.266C-54.798,115.008 -50.125,125.508 -45.05,131.186C-36.493,140.782 -20.479,143.072 0,137.63" style="fill:rgb(210,104,204);fill-rule:nonzero;"/>
                </g>
            </g>
            <g opacity="0.2">
                <g transform="matrix(1,0,0,1,351.046,306.917)">
                    <path d="M0,124.038C10.2,121.33 21.131,116.684 32.039,110.706C48.935,101.424 65.733,88.906 79.521,75.333C88.401,66.584 96.038,57.393 101.629,48.344C104.608,43.495 106.953,38.813 108.577,34.423C114.282,19.003 110.382,10.069 106.105,5.278C98.744,-2.965 84.66,-4.828 66.436,0.017C59.268,1.914 51.743,4.775 44.125,8.376C44.752,8.529 45.393,8.715 46.014,8.922C53.103,5.656 60.086,3.055 66.763,1.283C84.49,-3.426 98.12,-1.692 105.136,6.166C109.166,10.68 112.826,19.171 107.355,33.961C105.763,38.264 103.457,42.876 100.523,47.643C95.348,56.019 88.397,64.524 80.318,72.688C65.758,87.407 47.505,100.996 29.285,110.692C19.187,116.061 9.112,120.241 -0.334,122.756C-18.061,127.464 -31.691,125.731 -38.695,117.878C-42.742,113.371 -46.39,104.885 -40.923,90.107C-39.322,85.779 -37.021,81.18 -34.07,76.404C-30.433,70.492 -25.911,64.521 -20.731,58.657C-20.737,57.993 -20.725,57.32 -20.688,56.657C-26.346,62.946 -31.268,69.358 -35.177,75.703C-38.18,80.544 -40.517,85.242 -42.145,89.644C-47.841,105.04 -43.945,113.987 -39.664,118.765C-32.315,127.003 -18.231,128.866 0,124.038" style="fill:rgb(210,104,204);fill-rule:nonzero;"/>
                </g>
            </g>
            <g opacity="0.4">
                <g transform="matrix(1,0,0,1,351.753,311.882)">
                    <path d="M0,114.121C8.393,111.899 17.315,108.282 26.283,103.639C44.899,94.029 63.713,80.016 78.314,64.882C85.359,57.59 91.441,50.042 96.046,42.585C98.824,38.075 100.99,33.74 102.492,29.681C107.523,16.079 104.237,8.367 100.598,4.284C94.203,-2.873 81.564,-4.396 65.026,-0.008C59.079,1.57 52.861,3.844 46.555,6.68C47.127,6.869 47.69,7.082 48.244,7.319C54.077,4.751 59.828,2.692 65.347,1.223C81.413,-3.046 93.604,-1.652 99.679,5.14C103.082,8.958 106.131,16.228 101.318,29.236C99.848,33.212 97.72,37.481 94.984,41.912C90.716,48.821 85.184,55.819 78.768,62.605C63.627,78.658 43.615,93.557 23.972,103.413C15.676,107.58 7.448,110.838 -0.325,112.902C-16.398,117.155 -28.589,115.761 -34.653,108.973C-38.055,105.155 -41.104,97.885 -36.301,84.901C-34.826,80.913 -32.694,76.632 -29.946,72.206C-26.932,67.312 -23.278,62.39 -19.135,57.518C-19.181,56.919 -19.211,56.312 -19.229,55.71C-23.773,60.944 -27.762,66.267 -31.008,71.533C-33.798,76.038 -35.968,80.385 -37.474,84.456C-42.501,98.046 -39.222,105.742 -35.583,109.825C-29.188,116.982 -16.554,118.517 0,114.121" style="fill:rgb(210,104,204);fill-rule:nonzero;"/>
                </g>
            </g>
            <g opacity="0.5">
                <g transform="matrix(1,0,0,1,351.108,314.337)">
                    <path d="M0,109.217C7.192,107.312 14.782,104.367 22.453,100.627C43.019,90.592 64.17,74.852 79.746,57.949C85.57,51.643 90.623,45.18 94.567,38.785C97.283,34.373 99.363,30.195 100.804,26.302C104.154,17.247 104.018,9.767 100.267,4.612C94.898,-2.751 82.839,-4.393 66.301,-0.005C61.198,1.351 55.906,3.218 50.515,5.534C51.03,5.77 51.544,6.005 52.059,6.24C57.025,4.169 61.911,2.46 66.626,1.214C82.627,-3.026 94.217,-1.561 99.253,5.365C104.3,12.295 102.257,23.93 93.505,38.112C89.864,44.013 85.273,49.988 79.993,55.837C64.036,73.516 41.809,90.066 20.382,100.222C13.308,103.579 6.335,106.23 -0.309,107.991C-16.314,112.242 -27.912,110.761 -32.947,103.835C-36.43,99.039 -36.526,91.994 -33.347,83.401C-31.933,79.58 -29.875,75.461 -27.172,71.085C-24.596,66.905 -21.555,62.698 -18.127,58.529C-18.198,57.961 -18.268,57.393 -18.335,56.813C-22.104,61.326 -25.451,65.891 -28.234,70.412C-30.966,74.831 -33.067,79.029 -34.511,82.933C-37.853,91.965 -37.701,99.438 -33.962,104.588C-28.581,111.956 -16.526,113.61 0,109.217" style="fill:rgb(210,104,204);fill-rule:nonzero;"/>
                </g>
            </g>
            <g opacity="0.5">
                <g transform="matrix(1,0,0,1,407.102,195.881)">
                    <path d="M0,-57.863L0.108,-57.52C-15.677,-52.528 -24.504,-35.474 -19.568,-19.505C-17.162,-11.717 -11.892,-5.363 -4.728,-1.612C2.336,2.088 10.41,2.802 18.004,0.402C33.789,-4.591 42.616,-21.645 37.682,-37.614C35.275,-45.402 30.005,-51.756 22.842,-55.506C15.775,-59.207 7.702,-59.922 0.108,-57.52L0,-57.863ZM9.023,2.516C4.175,2.516 -0.637,1.342 -5.062,-0.975C-12.396,-4.815 -17.792,-11.321 -20.256,-19.292C-25.307,-35.638 -16.269,-53.094 -0.108,-58.206C7.668,-60.665 15.938,-59.934 23.175,-56.144C30.509,-52.303 35.905,-45.798 38.369,-37.827C43.42,-21.481 34.382,-4.024 18.221,1.087C15.199,2.042 12.104,2.516 9.023,2.516" style="fill:rgb(225,225,225);fill-rule:nonzero;"/>
                </g>
            </g>
            <g opacity="0.4">
                <g transform="matrix(1,0,0,1,406.546,197.686)">
                    <path d="M0,-61.473C-16.956,-56.111 -26.437,-37.792 -21.136,-20.639C-18.551,-12.274 -12.89,-5.449 -5.196,-1.419C2.394,2.555 11.065,3.322 19.224,0.744C36.181,-4.619 45.662,-22.938 40.359,-40.091C37.774,-48.456 32.114,-55.281 24.42,-59.31C16.83,-63.285 8.155,-64.052 0,-61.473M9.577,2.962C4.376,2.962 -0.783,1.703 -5.529,-0.783C-13.395,-4.901 -19.181,-11.877 -21.823,-20.426C-27.241,-37.956 -17.548,-56.677 -0.217,-62.159C8.123,-64.795 16.992,-64.011 24.754,-59.947C32.618,-55.828 38.404,-48.852 41.047,-40.304C46.465,-22.774 36.772,-4.052 19.44,1.429C16.2,2.454 12.88,2.962 9.577,2.962" style="fill:rgb(225,225,225);fill-rule:nonzero;"/>
                </g>
            </g>
            <g opacity="0.2">
                <g transform="matrix(1,0,0,1,416.197,201.964)">
                    <path d="M0,-70.028C-3.507,-70.028 -7.029,-69.489 -10.469,-68.401C-28.87,-62.583 -39.159,-42.703 -33.406,-24.088C-30.601,-15.01 -24.458,-7.603 -16.108,-3.231C-7.872,1.083 1.54,1.916 10.393,-0.883C28.794,-6.703 39.083,-26.582 33.329,-45.197C30.524,-54.275 24.381,-61.681 16.031,-66.054C10.995,-68.691 5.519,-70.028 0,-70.028M-0.077,1.463C-5.711,1.463 -11.301,0.099 -16.442,-2.593C-24.963,-7.055 -31.231,-14.613 -34.094,-23.875C-39.963,-42.867 -29.462,-63.149 -10.685,-69.087L-10.577,-68.744L-10.685,-69.087C-1.651,-71.944 7.957,-71.093 16.365,-66.691C24.886,-62.229 31.154,-54.671 34.017,-45.41C39.887,-26.418 29.386,-6.135 10.609,-0.198C7.1,0.912 3.502,1.462 -0.077,1.463" style="fill:rgb(225,225,225);fill-rule:nonzero;"/>
                </g>
            </g>
            <g opacity="0.1">
                <g transform="matrix(1,0,0,1,404.6,203.974)">
                    <path d="M0,-74.051L0.108,-73.708C-20.09,-67.321 -31.384,-45.5 -25.068,-25.068C-21.989,-15.103 -15.245,-6.972 -6.08,-2.173C2.96,2.561 13.289,3.474 23.008,0.403C43.205,-5.984 54.5,-27.805 48.186,-48.239C45.107,-58.202 38.362,-66.333 29.197,-71.132C20.156,-75.868 9.825,-76.78 0.108,-73.708L0,-74.051ZM11.516,2.908C5.344,2.908 -0.781,1.414 -6.414,-1.535C-15.75,-6.424 -22.619,-14.706 -25.756,-24.855C-32.188,-45.664 -20.682,-67.888 -0.108,-74.394C9.791,-77.525 20.318,-76.593 29.531,-71.769C38.867,-66.88 45.736,-58.599 48.873,-48.451C55.304,-27.641 43.798,-5.417 23.225,1.089C19.378,2.306 15.438,2.908 11.516,2.908" style="fill:rgb(225,225,225);fill-rule:nonzero;"/>
                </g>
            </g>
            <g transform="matrix(-0.955415,0.295267,0.295267,0.955415,432.235,190.846)">
                <path d="M8.414,-55.716C-7.173,-55.818 -19.81,-43.143 -19.81,-27.408C-19.811,-11.672 -7.174,1.168 8.414,1.27C24.001,1.372 36.638,-11.301 36.638,-27.038C36.638,-42.773 24.001,-55.613 8.414,-55.716" style="fill:rgb(225,225,225);fill-rule:nonzero;"/>
            </g>
            <g opacity="0.1">
                <g transform="matrix(1,0,0,1,432.314,195.53)">
                    <path d="M0,-27.265C-2.584,-28.158 -5.759,-27.525 -7.445,-25.352C-8.207,-24.37 -8.669,-23.114 -9.676,-22.393C-11.212,-21.291 -13.384,-21.887 -14.962,-22.925C-16.541,-23.963 -17.884,-25.407 -19.637,-26.101C-21.201,-26.721 -23.012,-26.67 -24.538,-25.962C-25.07,-25.715 -25.581,-25.381 -25.918,-24.897C-26.786,-23.654 -26.261,-21.947 -25.708,-20.532C-24.937,-18.561 -24.167,-16.59 -23.397,-14.618C-22.785,-13.052 -22.203,-11.163 -23.166,-9.788C-23.706,-9.017 -24.616,-8.611 -25.29,-7.956C-26.853,-6.436 -26.828,-3.755 -25.702,-1.88C-25.562,-1.647 -25.409,-1.425 -25.244,-1.213C-19.774,0.677 -13.683,0.893 -7.743,-0.986C-0.87,-3.159 4.592,-7.752 8.022,-13.545C8.012,-13.62 8.002,-13.695 7.991,-13.77C7.582,-16.502 7.043,-19.257 5.815,-21.724C4.588,-24.192 2.585,-26.372 0,-27.265" style="fill-rule:nonzero;"/>
                </g>
            </g>
            <g opacity="0.1">
                <g transform="matrix(1,0,0,1,437.349,141.622)">
                    <path d="M0,20.151C0.256,18.949 0.06,17.695 -0.226,16.5C-1.078,12.932 -3.067,9.259 -6.507,8.089C-7.943,7.6 -9.596,7.556 -10.754,6.566C-11.893,5.592 -12.228,3.953 -12.22,2.444C-12.214,1.198 -12.029,-0.052 -12.086,-1.291C-17.561,-3.186 -23.658,-3.404 -29.604,-1.523C-35.936,0.479 -41.067,4.536 -44.519,9.691C-43.444,10.598 -42.144,11.217 -40.748,11.385C-37.978,11.718 -34.984,10.521 -32.475,11.752C-28.706,13.601 -28.71,19.499 -25.22,21.841C-22.786,23.475 -19.543,22.798 -16.76,21.897C-13.978,20.996 -10.966,19.924 -8.222,20.938C-6.19,21.688 -4.26,23.555 -2.202,22.881C-1.045,22.502 -0.256,21.353 0,20.151" style="fill-rule:nonzero;"/>
                </g>
            </g>
            <g opacity="0.1">
                <g transform="matrix(1,0,0,1,397.333,173.907)">
                    <path d="M0,-5.08C-0.794,-7.544 0.066,-10.346 -0.852,-12.765C-1.839,-15.365 -4.485,-16.693 -7.218,-17.507C-9.665,-11.546 -10.139,-4.718 -8.086,1.924C-6.844,5.944 -4.798,9.482 -2.19,12.427C-0.725,12.402 0.735,12.156 2.126,11.644C4.664,10.709 7.128,8.618 7.194,5.887C7.249,3.641 5.69,1.706 4.091,0.147C2.491,-1.413 0.689,-2.943 0,-5.08" style="fill-rule:nonzero;"/>
                </g>
            </g>
            <g opacity="0.1">
                <g transform="matrix(1,0,0,1,411.882,194.874)">
                    <path d="M0,-55.748C10.565,-56.882 25.307,-41.62 23.644,-25.125C21.876,-7.587 2.1,1.865 -9.613,-2.744L-9.623,-2.74C-3.072,1.013 4.938,2.121 12.69,-0.33C27.553,-5.031 35.834,-21.029 31.188,-36.063C26.971,-49.708 13.555,-57.869 0,-55.748" style="fill-rule:nonzero;"/>
                </g>
            </g>
            <g opacity="0.1">
                <g transform="matrix(1,0,0,1,424.571,140.69)">
                    <path d="M0,53.854C14.863,49.154 23.145,33.155 18.498,18.121C15.475,8.339 7.723,1.375 -1.419,-1.001C-0.281,-0.688 14.071,3.224 16.51,23.348C19.049,44.295 0.007,53.851 -4.322,54.855C-2.88,54.639 -1.435,54.308 0,53.854" style="fill-rule:nonzero;"/>
                </g>
            </g>
            <g opacity="0.4">
                <g transform="matrix(1,0,0,1,410.959,164.598)">
                    <path d="M0,-7.161C-1.831,-6.582 -2.851,-4.611 -2.279,-2.759C-1.706,-0.907 0.242,0.124 2.072,-0.455C3.903,-1.033 4.923,-3.004 4.351,-4.856C3.779,-6.708 1.831,-7.74 0,-7.161M-14.215,-5.815C-18.212,-4.551 -20.439,-0.248 -19.189,3.795C-17.94,7.838 -13.687,10.091 -9.689,8.827C-5.693,7.563 -3.465,3.261 -4.715,-0.783C-5.964,-4.826 -10.218,-7.079 -14.215,-5.815M-2.98,-13.59C-3.707,-15.942 -6.181,-17.252 -8.506,-16.517C-10.831,-15.782 -12.126,-13.279 -11.399,-10.928C-10.672,-8.576 -8.198,-7.265 -5.874,-8.001C-3.549,-8.736 -2.253,-11.238 -2.98,-13.59" style="fill:white;fill-rule:nonzero;"/>
                </g>
            </g>
            <g opacity="0.2">
                <g transform="matrix(1,0,0,1,419.808,150.509)">
                    <path d="M0,-3.429C-0.416,-3.297 -0.775,-3.103 -1.047,-2.837C-1.946,-1.956 -2.214,-1.234 -1.845,-0.691C-0.868,0.745 3.667,0.922 5.322,0.148C5.562,0.034 5.807,-0.096 5.97,-0.283C6.556,-0.95 6.528,-1.576 5.888,-2.196C4.663,-3.382 1.804,-3.999 0,-3.429M5.201,0.965C3.176,1.605 -1.271,1.428 -2.434,-0.281C-2.844,-0.884 -3.023,-1.907 -1.544,-3.357C0.164,-5.034 4.639,-4.406 6.382,-2.719C7.303,-1.827 7.348,-0.764 6.505,0.197C6.255,0.482 5.934,0.657 5.623,0.803C5.499,0.862 5.357,0.916 5.201,0.965" style="fill-rule:nonzero;"/>
                </g>
            </g>
            <g opacity="0.2">
                <g transform="matrix(1,0,0,1,419.071,190.317)">
                    <path d="M0,-5.27C-0.64,-5.068 -1.212,-4.726 -1.623,-4.293C-2.098,-3.795 -2.756,-2.747 -1.827,-1.326C-1.295,-0.511 -0.316,0.071 0.789,0.231C1.745,0.368 2.819,0.22 3.983,-0.209C4.608,-0.441 5.674,-0.963 5.793,-1.865C5.887,-2.59 5.397,-3.244 4.97,-3.665C3.741,-4.873 1.664,-5.587 0.628,-5.419C0.413,-5.385 0.203,-5.334 0,-5.27M3.775,0.626C2.67,0.975 1.634,1.083 0.689,0.946C-0.637,0.756 -1.771,0.073 -2.423,-0.927C-3.289,-2.252 -3.183,-3.698 -2.138,-4.795C-1.491,-5.476 -0.524,-5.965 0.514,-6.133C1.872,-6.353 4.187,-5.442 5.468,-4.183C6.249,-3.415 6.607,-2.58 6.501,-1.77C6.377,-0.821 5.57,-0.026 4.227,0.47C4.076,0.526 3.925,0.579 3.775,0.626" style="fill-rule:nonzero;"/>
                </g>
            </g>
            <g transform="matrix(1,0,0,1,406.282,157.191)">
                <path d="M0,26.471C-0.265,26.422 -0.551,26.451 -0.809,26.536C-1.675,26.818 -2.582,27.949 -1.491,28.695C-1.161,28.922 -0.724,28.911 -0.333,28.831C0.577,28.644 1.532,27.432 0.483,26.673C0.339,26.568 0.174,26.503 0,26.471M-8.614,11.476C-9.465,11.509 -10.306,12.165 -10.112,13.156C-9.93,14.084 -8.81,14.706 -7.958,14.318C-7.178,13.963 -6.852,12.854 -7.312,12.125C-7.61,11.653 -8.114,11.456 -8.614,11.476M18.726,3.958C18.053,1.003 14.199,-2.451 11.004,-2.102C7.644,-1.735 4.898,3.506 5.834,6.589C6.31,8.154 7.785,9.251 9.354,9.65C10.922,10.049 12.578,9.854 14.164,9.533C15.822,9.198 17.627,8.598 18.439,7.098C18.95,6.155 18.965,5.005 18.726,3.958M21.667,8.859C21.652,8.868 21.637,8.877 21.621,8.885C19.96,9.839 20.599,11.761 20.359,13.335C20.296,13.742 20.255,14.171 20.396,14.558C20.666,15.297 21.559,15.656 22.327,15.521C23.094,15.386 23.742,14.867 24.273,14.291C25.04,13.459 25.657,12.416 25.701,11.279C25.798,8.765 23.684,7.736 21.667,8.859" style="fill:rgb(225,225,225);fill-rule:nonzero;"/>
            </g>
            <g opacity="0.2">
                <g transform="matrix(1,0,0,1,406.282,157.191)">
                    <path d="M0,26.471C-0.265,26.422 -0.551,26.451 -0.809,26.536C-1.675,26.818 -2.582,27.949 -1.491,28.695C-1.161,28.922 -0.724,28.911 -0.333,28.831C0.577,28.644 1.532,27.432 0.483,26.673C0.339,26.568 0.174,26.503 0,26.471M-8.614,11.476C-9.465,11.509 -10.306,12.165 -10.112,13.156C-9.93,14.084 -8.81,14.706 -7.958,14.318C-7.178,13.963 -6.852,12.854 -7.312,12.125C-7.61,11.653 -8.114,11.456 -8.614,11.476M18.726,3.958C18.053,1.003 14.199,-2.451 11.004,-2.102C7.644,-1.735 4.898,3.506 5.834,6.589C6.31,8.154 7.785,9.251 9.354,9.65C10.922,10.049 12.578,9.854 14.164,9.533C15.822,9.198 17.627,8.598 18.439,7.098C18.95,6.155 18.965,5.005 18.726,3.958M21.667,8.859C21.652,8.868 21.637,8.877 21.621,8.885C19.96,9.839 20.599,11.761 20.359,13.335C20.296,13.742 20.255,14.171 20.396,14.558C20.666,15.297 21.559,15.656 22.327,15.521C23.094,15.386 23.742,14.867 24.273,14.291C25.04,13.459 25.657,12.416 25.701,11.279C25.798,8.765 23.684,7.736 21.667,8.859" style="fill-rule:nonzero;"/>
                </g>
            </g>
        </g>
        <g id="Character">
            <g transform="matrix(1,0,0,1,264.781,369.104)">
                <path d="M0,-75.773C-7.339,-92.525 -17.101,-108.526 -17.101,-108.526L-110.446,-92.043C-110.764,-78.77 -108.593,-67.245 -99.428,-55.024C-96.831,-51.56 -93.756,-47.941 -90.616,-44.468C-91.934,-41.204 -93.506,-35.718 -93.099,-28.659C-92.423,-16.926 -87.777,-12.442 -87.777,-12.442C-87.777,-12.442 -86.433,-12.544 -82.226,-12.671C-83.021,-11.359 -83.768,-9.99 -84.412,-8.564C-88.673,0.877 -93.909,13.317 -93.909,13.317C-93.909,13.317 -91.729,22.54 -84.199,27.646C-76.669,32.753 -70.195,31.135 -70.195,31.135C-70.195,31.135 -44.492,6.361 -37.094,-0.456C-32.139,-5.024 -26.165,-11.787 -25.07,-14.346C-12.046,-15.898 -2.319,-22.696 1.531,-28.114C8.403,-37.785 8.215,-57.022 0,-75.773" style="fill:rgb(240,240,240);fill-rule:nonzero;"/>
            </g>
            <g transform="matrix(1,0,0,1,178.76,284.264)">
                <path d="M0,103.026L-2.88,102.056C-0.975,96.264 6.462,77.163 13.572,66.855C19.929,57.639 20.745,56.455 7.787,41.934C-5.768,26.745 -14.59,10.297 -14.687,0.03L-11.651,0C-11.56,9.56 -3.047,25.212 10.04,39.877C23.118,54.531 23.738,57.485 16.062,68.612C9.228,78.52 1.794,97.574 0,103.026" style="fill:rgb(225,225,225);fill-rule:nonzero;"/>
            </g>
            <g transform="matrix(1,0,0,1,239.711,282.748)">
                <path d="M0,72.01C5.754,57.731 1.581,44.731 -2.706,35.763C-6.993,26.794 -13.357,18.219 -13.357,18.219C-13.357,18.219 0.334,10.525 3.647,0C4.856,10.053 -4.913,20.235 -4.913,20.235C-4.913,20.235 14.889,52.043 0,72.01" style="fill:rgb(225,225,225);fill-rule:nonzero;"/>
            </g>
            <g transform="matrix(1,0,0,1,188.242,362.039)">
                <path d="M0,-14.394C-1.649,-12.324 -3.732,-9.359 -5.665,-5.643C-5.91,-5.63 -6.144,-5.606 -6.378,-5.582L-6.49,-5.576C-10.245,-5.261 -13.135,-4.857 -14.423,-4.018C-17.043,-2.315 -20.613,8.169 -22.359,15.216C-24.116,22.274 -32.231,24.43 -37.616,22.499C-43,20.58 -49.705,6.91 -46.271,-2.979C-42.827,-12.868 -38.154,-14.477 -37.864,-20.687C-37.584,-26.896 -37.085,-31.033 -33.741,-34.519C-26.385,-37.483 -25.599,-34.864 -18.658,-37.422C-17.615,-37.806 -16.487,-38.286 -15.329,-38.824L-3.844,-25.806C-3.095,-21.113 -1.601,-17.184 0,-14.394" style="fill:rgb(55,90,100);fill-rule:nonzero;"/>
            </g>
            <g transform="matrix(1,0,0,1,174.165,356.506)">
                <path d="M0,-31.87L17.212,-12.368C17.212,-12.368 12.464,-7.933 8.39,-0.072L6.203,0C6.203,0 7.673,-9.073 12.352,-12.435L0,-31.87Z" style="fill:rgb(43,69,78);fill-rule:nonzero;"/>
            </g>
            <g transform="matrix(1,0,0,1,207.127,423.66)">
                <path d="M0,-35.476L-2.182,-33.383C-15.363,-33.923 -29.113,-48.713 -30.57,-54.504L-29.385,-57.212C-32.365,-58.727 -36.835,-44.958 -41.38,-37.849C-45.393,-31.571 -47.585,-33.175 -51.676,-26.323C-52.253,-21.501 -50.186,-17.896 -46.706,-12.774C-43.227,-7.653 -45.989,-3.515 -42.828,6.471C-39.667,16.456 -26.161,23.251 -20.721,21.499C-15.281,19.747 -10.1,13.064 -12.909,6.376C-15.718,-0.313 -19.138,-10.846 -18.064,-13.806C-16.99,-16.765 -9.728,-22.951 -2.691,-29.755C2.154,-34.441 0,-35.476 0,-35.476" style="fill:rgb(55,90,100);fill-rule:nonzero;"/>
            </g>
            <g transform="matrix(1,0,0,1,217.871,216.788)">
                <path d="M0,-30.583C15.029,-34.368 23.629,-24.445 35.499,-24.201C48.471,-23.934 53.544,-28.392 58.463,-38.532C67.297,-43.63 77.954,-38.054 79.832,-32.931C78.249,-8.939 65.578,1.878 50.812,7.616C36.838,13.047 19.191,11.216 9.279,7.823C-4.55,-7.299 -2.683,-24.061 0,-30.583" style="fill:rgb(225,225,225);fill-rule:nonzero;"/>
            </g>
            <g transform="matrix(1,0,0,1,274.263,172.942)">
                <path d="M0,-7.64C0.791,-6.751 1.326,-5.658 2.091,-4.746C2.679,-4.045 3.4,-3.458 4.202,-3.027C4.723,-2.747 5.283,-2.529 5.743,-2.156C6.867,-1.246 6.32,-0.342 5.743,0.696C4.718,2.543 3.593,4.328 2.481,6.121C2.822,7.905 6.103,10.329 8.645,11.362C13.815,13.465 20.708,13.865 22.815,11.417C23.877,7.356 24.494,2.189 24.839,-1.991C24.977,-3.67 25.02,-5.384 24.605,-7.016C24.272,-8.324 23.654,-9.539 22.96,-10.693C20.54,-14.72 17.019,-18.201 12.655,-19.853C8.292,-21.505 3.053,-21.104 -0.624,-18.21C-1.459,-17.552 -2.298,-16.739 -3.355,-16.682C-4.646,-16.611 -5.836,-17.419 -7.197,-17.348C-8.644,-17.272 -10.076,-16.717 -11.154,-15.729C-11.472,-15.437 -11.767,-15.103 -11.93,-14.701C-12.541,-13.195 -11.138,-12.557 -9.976,-12.035C-8.298,-11.282 -6.482,-10.911 -4.731,-10.356C-2.979,-9.801 -1.229,-9.019 0,-7.64" style="fill:rgb(55,90,100);fill-rule:nonzero;"/>
            </g>
            <g transform="matrix(-0.914579,0.404408,0.404408,0.914579,292.049,207.724)">
                <path d="M2.456,-33.306C4.898,-31.342 11.778,-27.114 17.907,-27.274C21.328,-21.86 15.863,-3.385 2.456,0.865C-2.996,-2.329 -11.238,-9.573 -14.823,-19.541C-6.745,-19.043 3.023,-27.15 2.456,-33.306" style="fill:rgb(210,104,204);fill-rule:nonzero;"/>
            </g>
            <g transform="matrix(0.891289,-0.453437,-0.453437,-0.891289,345.27,210.781)">
                <path d="M-37.126,-8.903C-37.209,-11.389 -42.7,-11.254 -42.616,-8.768L-37.126,155.105C-37.051,157.338 -31.56,157.203 -31.635,154.969L-37.126,-8.903Z" style="fill:rgb(225,225,225);fill-rule:nonzero;"/>
            </g>
            <g transform="matrix(1,0,0,1,291.846,111.671)">
                <path d="M0,-27.204C-15.368,-16.07 -29.595,-35.703 -45.437,-21.959L-30.987,8.557C-22.648,-3.784 -3.94,4.959 6.887,-9.065C14.961,-19.524 12.964,-29.038 18.435,-34.042C19.066,-34.619 18.637,-35.697 17.786,-35.704C10.684,-35.761 6.1,-31.624 0,-27.204" style="fill:rgb(210,104,204);fill-rule:nonzero;"/>
            </g>
            <g opacity="0.5">
                <g transform="matrix(1,0,0,1,268.648,108.477)">
                    <path d="M0,-17.635L3.322,-13.955L8.202,-14.636C9.157,-14.77 9.849,-13.738 9.372,-12.89L6.939,-8.557L9.088,-4.072C9.508,-3.195 8.752,-2.211 7.807,-2.407L2.981,-3.409L-0.571,0.044C-1.266,0.72 -2.425,0.296 -2.532,-0.673L-3.081,-5.626L-7.426,-7.976C-8.276,-8.436 -8.235,-9.682 -7.358,-10.084L-2.871,-12.143L-2.004,-17.049C-1.834,-18.009 -0.65,-18.355 0,-17.635" style="fill:white;fill-rule:nonzero;"/>
                </g>
            </g>
            <g transform="matrix(1,0,0,1,288.329,168.964)">
                <path d="M0,-20.618C-0.588,-20.804 -1.138,-21.043 -1.629,-21.483C-2.509,-22.272 -3.275,-23.184 -4.168,-23.962C-5.106,-24.78 -6.093,-25.586 -7.259,-26.01C-8.144,-26.332 -9.095,-26.418 -10.034,-26.469C-12.808,-26.618 -15.652,-26.43 -17.71,-24.314C-18.357,-23.648 -18.948,-22.928 -19.477,-22.162C-19.953,-21.474 -20.365,-20.745 -20.758,-20.007C-21.139,-19.289 -21.488,-18.674 -21.638,-17.856C-21.672,-17.672 -21.695,-17.474 -21.617,-17.306C-21.546,-17.155 -21.405,-17.052 -21.262,-16.969C-20.283,-16.405 -19.025,-16.542 -18.018,-17.054C-16.384,-17.885 -15.464,-19.663 -13.687,-20.263C-12.906,-20.526 -12.052,-20.548 -11.254,-20.355C-10.653,-20.209 -9.627,-19.729 -9.425,-19.025C-10.63,-18.674 -11.869,-18.561 -13.048,-18.081C-14.043,-17.676 -15.193,-17.026 -15.799,-16.093C-16.46,-15.074 -16.824,-13.86 -17.107,-12.688C-17.392,-11.507 -17.595,-10.229 -17.19,-9.049C-17.04,-8.611 -16.8,-8.191 -16.435,-7.911C-16.07,-7.63 -15.567,-7.508 -15.139,-7.674C-15.212,-6.832 -14.532,-6.061 -13.734,-5.808C-12.937,-5.556 -12.067,-5.72 -11.28,-6.003C-10.632,-6.236 -10.011,-6.548 -9.436,-6.93C-9.695,-6.435 -9.732,-5.827 -9.536,-5.303C-9.106,-4.155 -7.679,-3.83 -6.608,-3.636C-5.322,-3.403 -4.011,-3.311 -2.706,-3.363C-2.83,-0.365 -0.801,2.406 1.771,3.899C4.344,5.393 7.38,5.82 10.341,6C11.089,0.625 11.304,-4.968 9.621,-10.123C9.284,-11.157 8.834,-12.089 8.29,-13.025C7.899,-13.698 7.292,-14.17 6.923,-14.853C6.731,-15.209 6.599,-15.599 6.36,-15.924C5.77,-16.728 4.648,-16.983 4.052,-17.782C3.785,-18.14 3.645,-18.581 3.394,-18.95C2.879,-19.705 1.97,-20.068 1.096,-20.31C0.721,-20.414 0.354,-20.506 0,-20.618" style="fill:rgb(55,90,100);fill-rule:nonzero;"/>
            </g>
            <g transform="matrix(1,0,0,1,270.62,175.081)">
                <path d="M0,-30.431C-1.542,-28.725 -2.732,-26.671 -3.593,-24.553C-3.703,-24.15 -3.871,-23.596 -3.654,-23.422C-3.033,-22.937 -2.041,-22.859 -1.224,-23.099C0.618,-23.59 1.529,-25.41 3.165,-26.36C4.034,-26.874 5.082,-27.057 6.076,-26.926C7.127,-26.745 8.213,-26.389 8.672,-25.254C8.745,-25.04 8.616,-24.809 8.397,-24.756C6.287,-24.206 4.19,-23.99 2.662,-22.451C1.398,-20.936 0.908,-18.644 0.756,-16.702C0.704,-15.693 1.213,-13.907 2.416,-14.223C2.65,-14.312 2.911,-14.194 3,-13.96C3.11,-11.252 6.561,-12.345 8.038,-13.402C8.389,-13.66 8.866,-13.217 8.651,-12.85C7.449,-9.786 13.13,-9.898 15.001,-9.834C15.204,-9.84 15.37,-9.667 15.357,-9.465C15.262,-2.975 22.558,-0.366 28.05,-0.117C22.271,0 14.69,-2.62 14.65,-9.495C14.65,-9.494 15.017,-9.126 15.017,-9.126C12.431,-9.032 6.326,-9.147 7.896,-13.244L8.509,-12.693C7.446,-12.008 6.313,-11.467 5.017,-11.365C3.634,-11.22 2.011,-12.248 2.113,-13.831L2.736,-13.364C1.727,-12.988 0.753,-13.654 0.36,-14.387C-0.445,-15.819 -0.191,-17.477 0.172,-18.951C0.557,-20.409 0.962,-21.896 2.043,-23.057C3.652,-24.711 6.149,-25.042 8.171,-25.529L7.897,-25.032C7.111,-26.421 4.8,-26.515 3.495,-25.773C1.919,-24.891 0.823,-23.021 -1.094,-22.598C-2.045,-22.372 -3.131,-22.414 -3.962,-23.136C-4.535,-23.967 -3.671,-25.183 -3.31,-25.944C-2.361,-27.549 -1.382,-29.16 0,-30.431" style="fill:rgb(43,69,78);fill-rule:nonzero;"/>
            </g>
            <g transform="matrix(1,0,0,1,286.164,150.07)">
                <path d="M0,-1.044C-1.246,-1.303 -2.565,-1.236 -3.828,-1.178C-4.487,-1.147 -5.14,-1.057 -5.791,-0.959C-6.15,-0.905 -6.506,-0.844 -6.862,-0.772C-7.132,-0.717 -7.422,-0.686 -7.659,-0.535C-7.908,-0.375 -7.775,-0.087 -7.573,0.09C-7.6,0.079 -7.562,0.107 -7.535,0.129C-7.528,0.135 -7.523,0.141 -7.516,0.146C-7.501,0.158 -7.517,0.15 -7.495,0.165C-7.445,0.198 -7.392,0.219 -7.335,0.228C-7.327,0.231 -7.319,0.227 -7.312,0.229C-7.302,0.23 -7.292,0.24 -7.282,0.241C-7.294,0.234 -7.293,0.235 -7.305,0.229C-7.167,0.259 -7.022,0.253 -6.884,0.235C-6.58,0.195 -6.277,0.127 -5.975,0.077C-5.077,-0.073 -4.18,-0.21 -3.281,-0.354C-2.182,-0.53 -1.048,-0.599 0.032,-0.872C0.104,-0.89 0.056,-1.032 0,-1.044" style="fill:rgb(43,69,78);fill-rule:nonzero;"/>
            </g>
            <g transform="matrix(1,0,0,1,288.411,159.497)">
                <path d="M0,-4.408C-0.508,-4.801 -1.115,-4.926 -1.724,-5.087C-2.427,-5.274 -3.153,-5.458 -3.876,-5.538C-5.296,-5.695 -6.728,-5.512 -8.103,-5.145C-9.476,-4.779 -10.801,-4.207 -11.972,-3.39C-13.49,-2.331 -14.138,-0.801 -14.972,0.804C-15.043,0.94 -14.814,1.287 -14.681,1.123C-13.645,-0.154 -12.727,-1.536 -11.34,-2.452C-10.153,-3.237 -8.83,-3.837 -7.458,-4.196C-6.194,-4.527 -4.892,-4.623 -3.592,-4.648C-2.96,-4.661 -2.355,-4.66 -1.728,-4.567C-1.156,-4.482 -0.578,-4.199 0.003,-4.252C0.066,-4.257 0.03,-4.385 0,-4.408" style="fill:rgb(43,69,78);fill-rule:nonzero;"/>
            </g>
            <g transform="matrix(1,0,0,1,287.464,161.03)">
                <path d="M0,-2.03C-0.31,-2.274 -0.792,-2.36 -1.17,-2.427C-1.526,-2.491 -1.904,-2.472 -2.264,-2.457C-3.063,-2.425 -3.846,-2.27 -4.61,-2.034C-5.898,-1.637 -7.046,-0.976 -7.836,0.158C-7.887,0.231 -7.938,0.32 -7.909,0.404C-7.902,0.425 -7.888,0.445 -7.867,0.452C-7.841,0.461 -7.815,0.447 -7.792,0.434C-7.427,0.226 -7.062,0.018 -6.697,-0.19C-6.384,-0.369 -6.074,-0.491 -5.753,-0.644C-5.115,-0.948 -4.456,-1.198 -3.769,-1.364C-3.106,-1.524 -2.422,-1.62 -1.741,-1.658C-1.368,-1.678 -1.009,-1.688 -0.64,-1.739C-0.411,-1.771 -0.171,-1.712 0.022,-1.856C0.072,-1.893 0.04,-1.999 0,-2.03" style="fill:rgb(43,69,78);fill-rule:nonzero;"/>
            </g>
            <g transform="matrix(1,0,0,1,154.445,275.389)">
                <path d="M0,-2.154C-1.328,1.296 0.681,6.104 7.963,9.501C15.244,12.898 26.834,15.585 46.518,12.759C63.412,10.333 77.827,4.344 86.102,-3.13C90.552,-7.15 95.44,-14.141 92.171,-17.739L0,-2.154Z" style="fill:rgb(55,90,100);fill-rule:nonzero;"/>
            </g>
            <g transform="matrix(1,0,0,1,246.616,212.448)">
                <path d="M0,45.202C-2.112,52.472 -14.143,65.161 -43.259,70.061C-71.85,74.873 -93.997,66.738 -93.783,57.086C-93.649,42.307 -102.406,32.017 -105.371,15.868C-108.688,-2.203 -102.645,-12.302 -102.645,-12.302C-74.64,-29.671 -30.562,-24.487 -21.489,-25.687C-10.503,-18.476 -4.419,-9.514 -4.898,15.092C-5.117,26.329 1.859,29.839 0,45.202" style="fill:rgb(240,240,240);fill-rule:nonzero;"/>
            </g>
            <g transform="matrix(1,0,0,1,238.109,263.51)">
                <path d="M0,-31.89C-0.1,-33.298 -0.588,-34.225 -1.308,-34.694L-1.286,-34.717L-6.534,-38.075C-6.534,-38.075 -6.551,-38.054 -6.555,-38.05C-7.456,-38.633 -8.729,-38.485 -10.16,-37.478C-19.304,-31.041 -30.509,-26.889 -44.477,-23.889C-47.549,-23.229 -49.835,-20.211 -49.563,-17.046L-48.234,-1.623C-48.083,0.129 -47.173,1.583 -45.869,2.428L-45.869,2.432L-40.566,5.824C-39.527,6.476 -38.244,6.743 -36.896,6.47C-23.121,3.674 -10.917,-1.439 -2.998,-6.678C-0.37,-8.417 1.373,-12.681 1.147,-15.85L0,-31.89Z" style="fill:rgb(210,104,204);fill-rule:nonzero;"/>
            </g>
            <g opacity="0.2">
                <g transform="matrix(1,0,0,1,188.546,265.934)">
                    <path d="M0,-19.469L1.329,-4.046C1.48,-2.294 2.39,-0.84 3.693,0.005L3.694,0.009L8.996,3.4C9.139,3.49 9.297,3.553 9.448,3.628L8.31,-18.091L0.832,-23.097C0.217,-22.008 -0.111,-20.755 0,-19.469" style="fill-rule:nonzero;"/>
                </g>
            </g>
            <g transform="matrix(1,0,0,1,233.192,268.789)">
                <path d="M0,-39.404C-9.144,-32.967 -20.349,-28.815 -34.318,-25.815C-37.39,-25.155 -39.676,-22.137 -39.403,-18.972L-38.074,-3.549C-37.801,-0.384 -35.059,1.815 -31.979,1.19C-18.204,-1.605 -6,-6.719 1.919,-11.957C4.547,-13.696 6.29,-17.961 6.064,-21.13L4.917,-37.169C4.691,-40.338 2.578,-41.219 0,-39.404" style="fill:rgb(210,104,204);fill-rule:nonzero;"/>
            </g>
            <g opacity="0.3">
                <g transform="matrix(1,0,0,1,233.192,268.789)">
                    <path d="M0,-39.404C-9.144,-32.967 -20.349,-28.815 -34.318,-25.815C-37.39,-25.155 -39.676,-22.137 -39.403,-18.972L-38.074,-3.549C-37.801,-0.384 -35.059,1.815 -31.979,1.19C-18.204,-1.605 -6,-6.719 1.919,-11.957C4.547,-13.696 6.29,-17.961 6.064,-21.13L4.917,-37.169C4.691,-40.338 2.578,-41.219 0,-39.404" style="fill:white;fill-rule:nonzero;"/>
                </g>
            </g>
            <g transform="matrix(1,0,0,1,212.075,247.299)">
                <path d="M0,16.38C-0.005,16.32 -0.009,16.259 -0.013,16.199C-0.047,15.715 -0.067,15.23 -0.116,14.745C-0.156,14.346 -0.213,13.946 -0.244,13.545C-0.383,11.709 -0.538,9.875 -0.71,8.042C-0.877,6.257 -1.059,4.472 -1.257,2.69C-1.367,1.705 -1.492,0.722 -1.621,-0.261C-1.755,-1.278 -1.836,-2.396 -2.197,-3.355C-2.374,-3.826 -3.392,-3.891 -3.434,-3.296C-3.562,-1.51 -3.161,0.405 -2.969,2.182C-2.782,3.916 -2.591,5.649 -2.423,7.386C-2.26,9.075 -2.11,10.766 -1.974,12.457C-1.907,13.303 -1.842,14.149 -1.781,14.996C-1.738,15.594 -1.876,16.601 -1.371,17.026C-1.049,17.299 -0.615,17.346 -0.262,17.083C-0.045,16.922 0.018,16.76 0.007,16.482C0.005,16.448 0.003,16.414 0,16.38M-5.21,17.723C-5.244,17.239 -5.264,16.754 -5.313,16.27C-5.354,15.87 -5.41,15.47 -5.441,15.069C-5.58,13.234 -5.735,11.399 -5.907,9.567C-6.074,7.781 -6.257,5.997 -6.454,4.214C-6.564,3.229 -6.689,2.246 -6.818,1.264C-6.952,0.246 -7.033,-0.872 -7.394,-1.831C-7.571,-2.302 -8.589,-2.367 -8.631,-1.772C-8.759,0.015 -8.359,1.929 -8.167,3.706C-7.979,5.44 -7.788,7.173 -7.62,8.91C-7.457,10.599 -7.307,12.29 -7.171,13.981C-7.104,14.827 -7.039,15.673 -6.978,16.52C-6.935,17.119 -7.073,18.125 -6.568,18.551C-6.246,18.823 -5.812,18.87 -5.46,18.608C-5.242,18.446 -5.179,18.284 -5.19,18.006C-5.192,17.972 -5.194,17.938 -5.197,17.904C-5.202,17.844 -5.206,17.784 -5.21,17.723M-10.179,19.124C-10.213,18.64 -10.233,18.155 -10.282,17.671C-10.323,17.271 -10.379,16.871 -10.41,16.47C-10.549,14.635 -10.704,12.8 -10.876,10.968C-11.043,9.182 -11.226,7.398 -11.423,5.615C-11.533,4.63 -11.658,3.647 -11.787,2.665C-11.921,1.647 -12.002,0.529 -12.363,-0.43C-12.54,-0.901 -13.558,-0.966 -13.6,-0.371C-13.727,1.415 -13.328,3.33 -13.135,5.107C-12.948,6.841 -12.757,8.574 -12.589,10.311C-12.425,12 -12.276,13.691 -12.14,15.382C-12.073,16.228 -12.008,17.074 -11.947,17.921C-11.904,18.52 -12.042,19.526 -11.537,19.952C-11.215,20.224 -10.781,20.271 -10.428,20.008C-10.211,19.847 -10.148,19.685 -10.159,19.407C-10.161,19.373 -10.163,19.339 -10.166,19.305C-10.171,19.245 -10.175,19.185 -10.179,19.124" style="fill:rgb(210,104,204);fill-rule:nonzero;"/>
            </g>
            <g opacity="0.2">
                <g transform="matrix(1,0,0,1,211.095,244.638)">
                    <path d="M0,18.184C-0.033,17.699 -0.053,17.215 -0.103,16.73C-0.143,16.33 -0.2,15.93 -0.23,15.53C-0.37,13.694 -0.525,11.86 -0.696,10.027C-0.864,8.241 -1.046,6.457 -1.244,4.675C-1.353,3.69 -1.479,2.707 -1.608,1.724C-1.727,0.82 -1.816,-0.158 -2.085,-1.04C-2.282,-0.99 -2.438,-0.861 -2.454,-0.636C-2.582,1.151 -2.182,3.066 -1.99,4.842C-1.802,6.577 -1.611,8.31 -1.443,10.046C-1.28,11.736 -1.13,13.426 -0.994,15.118C-0.927,15.964 -0.862,16.81 -0.801,17.656C-0.77,18.092 -0.828,18.738 -0.672,19.224C-0.527,19.209 -0.382,19.167 -0.249,19.068C-0.032,18.907 0.032,18.745 0.02,18.466C0.018,18.432 0.016,18.399 0.013,18.365C0.009,18.304 0.004,18.244 0,18.184" style="fill-rule:nonzero;"/>
                </g>
                <g transform="matrix(1,0,0,1,200.929,247.564)">
                    <path d="M0,18.183C-0.034,17.699 -0.053,17.214 -0.103,16.729C-0.143,16.329 -0.2,15.93 -0.231,15.529C-0.37,13.693 -0.525,11.859 -0.697,10.026C-0.864,8.241 -1.046,6.456 -1.244,4.674C-1.354,3.689 -1.479,2.706 -1.608,1.723C-1.727,0.819 -1.816,-0.159 -2.085,-1.041C-2.282,-0.991 -2.438,-0.861 -2.454,-0.636C-2.582,1.15 -2.182,3.065 -1.99,4.842C-1.802,6.576 -1.611,8.309 -1.443,10.046C-1.279,11.735 -1.13,13.426 -0.994,15.117C-0.927,15.963 -0.862,16.809 -0.802,17.656C-0.77,18.091 -0.828,18.737 -0.672,19.224C-0.527,19.208 -0.382,19.166 -0.249,19.067C-0.032,18.906 0.032,18.744 0.02,18.466C0.019,18.432 0.016,18.398 0.013,18.364C0.009,18.304 0.004,18.243 0,18.183" style="fill-rule:nonzero;"/>
                </g>
                <g transform="matrix(1,0,0,1,205.898,246.162)">
                    <path d="M0,18.184C-0.034,17.699 -0.054,17.215 -0.103,16.73C-0.143,16.33 -0.2,15.931 -0.231,15.53C-0.37,13.694 -0.525,11.86 -0.697,10.027C-0.864,8.241 -1.046,6.457 -1.244,4.675C-1.354,3.69 -1.479,2.707 -1.608,1.724C-1.727,0.82 -1.816,-0.158 -2.085,-1.04C-2.282,-0.99 -2.438,-0.861 -2.454,-0.635C-2.582,1.151 -2.182,3.066 -1.99,4.843C-1.802,6.577 -1.611,8.31 -1.443,10.047C-1.28,11.736 -1.13,13.427 -0.995,15.118C-0.927,15.964 -0.862,16.81 -0.801,17.657C-0.77,18.092 -0.828,18.738 -0.672,19.224C-0.527,19.209 -0.382,19.167 -0.249,19.068C-0.032,18.907 0.032,18.745 0.02,18.467C0.018,18.433 0.016,18.399 0.013,18.365C0.008,18.304 0.004,18.244 0,18.184" style="fill-rule:nonzero;"/>
                </g>
            </g>
            <g transform="matrix(1,0,0,1,222.583,247.886)">
                <path d="M0,-6.649C0.56,-6.361 0.931,-5.699 0.982,-4.731C1.083,-2.795 -0.137,-0.368 -1.744,0.688C-2.547,1.217 -3.295,1.303 -3.855,1.015C-4.195,0.84 -5.487,0.175 -5.827,-0C-6.387,-0.288 -6.758,-0.95 -6.809,-1.918C-6.91,-3.855 -5.69,-6.281 -4.083,-7.338C-3.28,-7.866 -2.532,-7.952 -1.972,-7.664C-1.632,-7.489 -0.34,-6.824 0,-6.649" style="fill:rgb(26,46,53);fill-rule:nonzero;"/>
            </g>
            <g transform="matrix(1,0,0,1,220.839,241.564)">
                <path d="M0,7.011C-0.803,7.54 -1.551,7.626 -2.111,7.337C-2.671,7.049 -3.042,6.387 -3.093,5.419C-3.194,3.483 -1.974,1.057 -0.367,-0C0.436,-0.529 1.184,-0.615 1.744,-0.327C2.303,-0.038 2.675,0.624 2.726,1.592C2.827,3.528 1.607,5.954 0,7.011" style="fill:rgb(55,90,100);fill-rule:nonzero;"/>
            </g>
            <g transform="matrix(1,0,0,1,234.553,242.63)">
                <path d="M0,-6.649C0.56,-6.361 0.931,-5.699 0.982,-4.731C1.083,-2.795 -0.137,-0.368 -1.744,0.688C-2.547,1.217 -3.295,1.303 -3.855,1.015C-4.195,0.84 -5.487,0.175 -5.827,-0C-6.387,-0.288 -6.758,-0.951 -6.809,-1.918C-6.91,-3.855 -5.69,-6.281 -4.083,-7.338C-3.28,-7.866 -2.532,-7.952 -1.972,-7.664C-1.632,-7.489 -0.34,-6.824 0,-6.649" style="fill:rgb(225,225,225);fill-rule:nonzero;"/>
            </g>
            <g transform="matrix(1,0,0,1,232.81,236.308)">
                <path d="M0,7.011C-0.803,7.539 -1.551,7.626 -2.111,7.337C-2.671,7.049 -3.042,6.387 -3.093,5.419C-3.194,3.483 -1.974,1.057 -0.367,-0C0.436,-0.529 1.184,-0.615 1.744,-0.327C2.303,-0.038 2.675,0.624 2.726,1.592C2.827,3.528 1.607,5.954 0,7.011" style="fill:rgb(245,245,245);fill-rule:nonzero;"/>
            </g>
            <g transform="matrix(1,0,0,1,223.219,260.04)">
                <path d="M0,-6.649C0.56,-6.361 0.931,-5.699 0.982,-4.731C1.083,-2.795 -0.137,-0.368 -1.744,0.689C-2.547,1.217 -3.295,1.303 -3.855,1.015C-4.195,0.84 -5.487,0.175 -5.827,-0C-6.387,-0.288 -6.758,-0.95 -6.809,-1.918C-6.91,-3.855 -5.69,-6.281 -4.083,-7.338C-3.28,-7.866 -2.532,-7.952 -1.972,-7.664C-1.632,-7.489 -0.34,-6.824 0,-6.649" style="fill:rgb(26,46,53);fill-rule:nonzero;"/>
            </g>
            <g transform="matrix(1,0,0,1,221.476,253.717)">
                <path d="M0,7.011C-0.803,7.539 -1.551,7.626 -2.111,7.337C-2.671,7.049 -3.042,6.387 -3.093,5.419C-3.194,3.483 -1.974,1.057 -0.367,-0C0.436,-0.529 1.184,-0.615 1.744,-0.327C2.303,-0.038 2.675,0.624 2.726,1.592C2.827,3.528 1.607,5.954 0,7.011" style="fill:rgb(55,90,100);fill-rule:nonzero;"/>
            </g>
            <g transform="matrix(1,0,0,1,235.19,254.784)">
                <path d="M0,-6.649C0.56,-6.361 0.931,-5.699 0.982,-4.731C1.083,-2.795 -0.137,-0.368 -1.744,0.688C-2.547,1.217 -3.295,1.303 -3.855,1.015C-4.195,0.84 -5.487,0.175 -5.827,-0C-6.387,-0.288 -6.758,-0.95 -6.809,-1.918C-6.91,-3.855 -5.69,-6.281 -4.083,-7.338C-3.28,-7.866 -2.532,-7.952 -1.972,-7.664C-1.632,-7.489 -0.34,-6.824 0,-6.649" style="fill:rgb(26,46,53);fill-rule:nonzero;"/>
            </g>
            <g transform="matrix(1,0,0,1,233.447,248.46)">
                <path d="M0,7.012C-0.803,7.54 -1.551,7.626 -2.111,7.338C-2.671,7.05 -3.042,6.388 -3.093,5.42C-3.194,3.484 -1.974,1.058 -0.367,0.001C0.436,-0.528 1.184,-0.614 1.744,-0.326C2.304,-0.038 2.675,0.625 2.726,1.593C2.827,3.529 1.607,5.955 0,7.012" style="fill:rgb(55,90,100);fill-rule:nonzero;"/>
            </g>
            <g transform="matrix(1,0,0,1,189.045,263.878)">
                <path d="M0,-11.628C-7.381,-7.837 -31.197,-3.526 -40.39,-13.242C-42.146,-10.567 -41.198,-7.105 -38.406,-4.237C-35.614,-1.368 -29.214,1.614 -20.098,1.231C-4.92,0.592 2.478,-2.991 2.478,-2.991C2.478,-2.991 4.951,-4.447 4.086,-8.503C3.221,-12.56 0,-11.628 0,-11.628" style="fill:rgb(55,90,100);fill-rule:nonzero;"/>
            </g>
            <g transform="matrix(1,0,0,1,153.116,247.967)">
                <path d="M0,-4.653C-4.665,-2.732 -12.47,1.082 -17.596,8.113C-23.509,16.223 -25.186,26.735 -21.269,34.155C-29.335,43.547 -38.4,43.352 -43.638,42.657C-53.656,26.727 -54.3,6.416 -48.482,-8.463C-42.664,-23.342 -33.49,-37.765 -9.145,-47.821C3.15,-48.2 11.223,-17.013 0,-4.653" style="fill:rgb(225,225,225);fill-rule:nonzero;"/>
            </g>
            <g transform="matrix(1,0,0,1,106.548,313.623)">
                <path d="M0,-31.139C-0.111,-30.94 -0.218,-30.735 -0.322,-30.527C-0.409,-30.351 -0.494,-30.166 -0.493,-29.969C-0.491,-29.717 -0.346,-29.491 -0.204,-29.284C0.947,-27.61 2.301,-26.086 3.448,-24.41C4.596,-22.733 5.549,-20.853 5.75,-18.824C6.023,-16.066 5.753,-13.354 6.257,-10.578C6.795,-7.621 7.671,-4.742 8.551,-1.875C9.279,0.494 10.256,2.276 12.036,3.977C13.725,5.59 15.866,6.632 18.01,7.476C19.179,7.937 20.469,8.016 21.724,8.069C22.806,8.114 24.401,8.513 25.431,8.135C25.686,8.041 25.935,7.899 26.084,7.676C26.331,7.304 26.238,6.817 26.078,6.411C25.67,5.374 24.894,4.508 23.973,3.864C22.241,2.652 19.957,2.269 18.654,0.472C18.139,-0.238 17.856,-1.202 17.65,-2.049C17.604,-2.239 17.723,-2.505 17.921,-2.474C18.398,-2.02 18.756,-1.44 19.237,-1.012C19.773,-0.535 20.612,-0.219 21.271,0.064C22.651,0.658 24.123,1.051 25.627,1.241C28.633,1.621 31.777,1.187 34.559,-0.097C35.307,-0.442 36.045,-0.856 36.589,-1.469C37.279,-2.244 37.685,-3.701 36.956,-4.56C36.613,-4.964 36.088,-5.179 35.564,-5.306C36.075,-5.643 36.33,-6.285 36.271,-6.876C36.212,-7.468 35.872,-8.004 35.419,-8.392C34.973,-8.775 34.427,-8.969 33.852,-9.105C34.034,-9.722 33.876,-10.399 33.518,-10.924C33.16,-11.449 32.619,-11.833 32.034,-12.101C31.548,-12.323 31.016,-12.477 30.607,-12.814C29.813,-13.467 29.639,-14.72 29.54,-15.683C29.418,-16.872 29.533,-18.073 29.521,-19.268C29.485,-22.759 28.057,-26.073 26.029,-28.792C24.235,-31.199 20.835,-35.966 19.053,-38.373C18.384,-39.277 17.066,-39.456 16.034,-39.505C12.912,-39.652 9.633,-38.618 6.837,-37.292C3.88,-35.888 1.581,-33.988 0,-31.139" style="fill:rgb(55,90,100);fill-rule:nonzero;"/>
            </g>
            <g transform="matrix(1,0,0,1,137.989,294.076)">
                <path d="M0,11.244C-0.51,11.21 -1.011,11.129 -1.518,11.075C-2.029,11.02 -2.543,10.95 -3.043,10.837C-3.698,10.689 -4.348,10.51 -4.91,10.149C-4.967,10.113 -5.026,10.072 -5.055,10.012C-5.115,9.889 -5.03,9.745 -4.952,9.627C-4.795,9.388 -3.974,7.996 -4.336,7.814C-4.848,8.435 -5.36,9.056 -5.872,9.677C-6.09,9.94 -6.287,10.209 -6.554,10.421C-6.85,10.656 -7.128,10.913 -7.427,11.147C-7.489,11.195 -7.554,11.236 -7.616,11.284C-7.622,10.917 -7.698,10.539 -7.84,10.16C-8.21,9.168 -8.843,8.285 -9.646,7.588C-10.419,6.917 -11.248,6.607 -12.141,6.249C-12.015,5.85 -11.624,5.356 -11.469,5.063C-11.206,4.568 -10.952,4.068 -10.732,3.554C-10.287,2.519 -9.981,1.454 -9.966,0.333C-9.937,-1.826 -11.145,-3.297 -12.824,-4.505C-13.037,-4.658 -13.128,-4.433 -13.052,-4.25C-12.463,-2.853 -11.543,-1.49 -11.571,0.083C-11.599,1.638 -12.294,3.118 -13.017,4.485C-13.28,4.983 -13.846,5.698 -13.905,6.264C-13.978,6.96 -13.445,7.192 -12.884,7.38C-11.583,7.815 -10.511,8.519 -9.815,9.712C-9.515,10.228 -8.881,11.336 -9.543,11.823C-10.067,12.208 -11.093,12.118 -11.718,12.171C-13.177,12.293 -14.742,12.392 -16.159,12.01C-17.681,11.6 -18.711,10.594 -19.713,9.472C-20.222,8.902 -20.73,8.337 -21.252,7.779C-21.785,7.211 -22.279,6.507 -22.929,6.067C-22.995,6.022 -23,6.146 -22.99,6.178C-22.611,7.451 -21.577,8.772 -20.778,9.823C-20.036,10.8 -19.21,11.741 -18.136,12.383C-16.24,13.515 -13.936,13.637 -11.749,13.519C-11.487,13.505 -11.21,13.492 -10.93,13.476C-11.538,13.818 -12.156,14.139 -12.72,14.554C-12.786,14.602 -12.744,14.759 -12.658,14.752C-11.383,14.645 -10.116,14.019 -8.984,13.287C-6.064,14.976 -2.326,15.902 1.018,14.936C1.127,14.905 1.071,14.667 0.968,14.668C-0.839,14.686 -2.662,14.635 -4.418,14.217C-5.741,13.902 -6.984,13.368 -8.163,12.72C-8.003,12.604 -7.832,12.49 -7.681,12.374C-6.996,11.851 -6.368,11.258 -5.774,10.637C-5.701,10.688 -5.626,10.729 -5.547,10.769C-5.435,10.827 -5.321,10.883 -5.206,10.936C-4.977,11.043 -4.743,11.14 -4.506,11.229C-4.009,11.416 -3.5,11.564 -2.975,11.665C-2.432,11.77 -1.897,11.831 -1.34,11.834C-0.849,11.836 -0.386,11.717 0.088,11.584C0.239,11.541 0.124,11.252 0,11.244" style="fill:rgb(43,69,78);fill-rule:nonzero;"/>
            </g>
            <g transform="matrix(-0.752539,-0.658548,-0.658548,0.752539,99.7209,270.966)">
                <path d="M-20.289,-24.231C-21.822,-21.647 -26.562,-14.561 -31.523,-12.762C-20.592,-9.457 -17.328,2.647 -20.289,8.368C-13.596,7.78 -5.937,3.845 3.021,-4.865C-0.62,-17.55 -11.511,-24.615 -20.289,-24.231" style="fill:rgb(210,104,204);fill-rule:nonzero;"/>
            </g>
            <g transform="matrix(1,0,0,1,228.669,207.309)">
                <path d="M0,-26.851C-14.326,-50.408 -72.104,-44.397 -80.084,-17.806C-80.631,-15.984 -80.873,-14.079 -80.834,-12.175C-80.8,-10.499 -80.63,-8.739 -80.379,-7.158C-80.06,-5.155 -79.464,-3.202 -78.527,-1.409C-65.482,23.557 -5.903,17.809 2.238,-9.212C2.823,-11.153 3.043,-13.186 2.981,-15.214C2.94,-16.542 2.821,-17.981 2.622,-19.376C2.244,-22.021 1.384,-24.576 0,-26.851" style="fill:rgb(55,90,100);fill-rule:nonzero;"/>
            </g>
            <g transform="matrix(1,0,0,1,170.551,214.062)">
                <path d="M0,0.019C0.192,1.833 -0.043,2.848 -0.25,3.744C-0.409,4.434 -0.547,5.052 -0.429,5.853C-0.259,5.898 -0.087,5.939 0.084,5.982C-0.079,5.177 0.05,4.604 0.223,3.855C0.428,2.968 0.683,1.863 0.482,-0.033C0.263,-2.102 0.533,-3.839 2.564,-5.59L2.249,-5.963C0.057,-4.073 -0.235,-2.205 0,0.019" style="fill:rgb(43,69,78);fill-rule:nonzero;"/>
            </g>
            <g transform="matrix(1,0,0,1,187.248,212.939)">
                <path d="M0,-45.638C-10.184,-44.654 -20.153,-41.406 -27.479,-36.129C-34.533,-31.048 -38.099,-24.868 -37.519,-18.728C-36.939,-12.588 -32.281,-7.203 -24.404,-3.564C-8.043,3.994 17.187,1.555 31.838,-8.999C38.892,-14.081 42.457,-20.26 41.878,-26.4C41.298,-32.539 36.64,-37.925 28.763,-41.564C20.582,-45.343 10.184,-46.622 0,-45.638M4.404,0.991C-5.867,1.984 -16.354,0.693 -24.605,-3.118C-32.647,-6.832 -37.404,-12.36 -38.001,-18.681C-38.598,-25.003 -34.962,-31.341 -27.76,-36.529C-12.984,-47.173 12.462,-49.632 28.964,-42.01C37.006,-38.295 41.763,-32.768 42.36,-26.447C42.957,-20.125 39.32,-13.787 32.119,-8.599C24.732,-3.278 14.675,-0.002 4.404,0.991" style="fill:rgb(43,69,78);fill-rule:nonzero;"/>
            </g>
            <g transform="matrix(1,0,0,1,227.174,214.065)">
                <path d="M0,-34.986L0.514,-29.549C1.056,-23.801 -2.157,-17.691 -9.254,-12.58C-23.443,-2.353 -47.798,0 -63.645,-7.324C-71.57,-10.983 -75.869,-16.368 -76.412,-22.115L-76.925,-27.552C-76.382,-21.805 -72.083,-16.415 -64.158,-12.756C-48.311,-5.437 -23.957,-7.79 -9.767,-18.012C-2.67,-23.123 0.543,-29.234 0,-34.986" style="fill:rgb(240,240,240);fill-rule:nonzero;"/>
            </g>
            <g transform="matrix(0.817632,0.575741,0.575741,-0.817632,201.349,206.301)">
                <path d="M2.617,-0.829C3.903,0.775 5.093,2.426 6.168,4.112L2.617,8.262C1.542,6.578 0.35,4.929 -0.936,3.325L2.617,-0.829Z" style="fill:rgb(250,250,250);fill-rule:nonzero;"/>
            </g>
            <g transform="matrix(1,0,0,1,226.1,202.206)">
                <path d="M0,-16.36C-1.462,-12.791 -4.345,-9.284 -8.693,-6.153C-9.031,-5.91 -9.38,-5.675 -9.729,-5.44L-9.215,0C-8.866,-0.235 -8.518,-0.477 -8.18,-0.721C-3.832,-3.852 -0.949,-7.358 0.513,-10.927L0,-16.36Z" style="fill:rgb(225,225,225);fill-rule:nonzero;"/>
            </g>
            <g transform="matrix(1,0,0,1,191.523,193.032)">
                <path d="M0,12.15C-10.062,13.228 -20.398,12.022 -28.507,8.277C-36.432,4.617 -40.731,-0.772 -41.274,-6.52L-40.76,-1.083C-40.218,4.665 -35.919,10.05 -27.994,13.709C-19.885,17.457 -9.548,18.67 0.514,17.592L0,12.15Z" style="fill:rgb(225,225,225);fill-rule:nonzero;"/>
            </g>
            <g transform="matrix(0.095926,0.995388,0.995388,-0.095926,171.009,198.034)">
                <path d="M8.348,-7.582C11.059,-2.71 12.879,3.074 13.815,9.181L8.348,9.192C7.413,3.084 5.591,-2.7 2.881,-7.571L8.348,-7.582Z" style="fill:rgb(245,245,245);fill-rule:nonzero;"/>
            </g>
            <g transform="matrix(1,0,0,1,227.74,186.679)">
                <path d="M0,-9.69C-0.554,-15.552 -4.936,-21.044 -13.016,-24.776C-29.177,-32.241 -54.009,-29.841 -68.48,-19.417C-75.715,-14.204 -78.99,-7.973 -78.437,-2.111C-78.404,-1.759 -78.271,-0.352 -78.238,0C-77.684,5.862 -73.301,11.354 -65.221,15.086C-49.061,22.551 -24.229,20.151 -9.758,9.727C-2.522,4.514 0.753,-1.717 0.199,-7.579C0.166,-7.931 0.033,-9.338 0,-9.69" style="fill:rgb(43,69,78);fill-rule:nonzero;"/>
            </g>
            <g transform="matrix(1,0,0,1,162.319,161.903)">
                <path d="M0,37.751C16.16,45.216 40.992,42.816 55.463,32.392C62.699,27.179 65.974,20.948 65.421,15.086C64.867,9.224 60.484,3.732 52.404,0C36.244,-7.465 11.412,-5.066 -3.059,5.359C-10.295,10.571 -13.57,16.803 -13.016,22.665C-12.463,28.527 -8.08,34.019 0,37.751" style="fill:rgb(55,90,100);fill-rule:nonzero;"/>
            </g>
            <g transform="matrix(1,0,0,1,177.241,207.45)">
                <path d="M0,-0.956C-3.258,-1.235 -6.391,-1.904 -9.203,-2.981C-9.511,-3.099 -9.776,-3.079 -9.957,-2.948C-10.101,-2.844 -10.636,-2.455 -10.779,-2.351C-10.965,-2.217 -11.064,-1.967 -11.031,-1.626L-11.028,-1.586C-10.964,-0.912 -10.415,-0.146 -9.789,0.094C-6.977,1.172 -3.843,1.841 -0.585,2.121C-0.325,2.143 -0.092,2.077 0.09,1.948C0.239,1.843 0.784,1.444 0.923,1.345C1.204,1.145 1.367,0.798 1.329,0.392L1.325,0.35C1.261,-0.324 0.667,-0.899 0,-0.956" style="fill:rgb(43,69,78);fill-rule:nonzero;"/>
            </g>
            <g transform="matrix(1,0,0,1,167.452,206.907)">
                <path d="M0,0.637C2.812,1.715 5.946,2.384 9.204,2.663C9.871,2.721 10.361,2.202 10.298,1.528L10.294,1.486C10.23,0.812 9.636,0.237 8.969,0.18C5.711,-0.099 2.578,-0.768 -0.234,-1.844C-0.86,-2.084 -1.306,-1.758 -1.243,-1.083L-1.239,-1.044C-1.175,-0.37 -0.626,0.397 0,0.637" style="fill:rgb(55,90,100);fill-rule:nonzero;"/>
            </g>
            <g transform="matrix(1,0,0,1,224.058,178.251)">
                <path d="M0,-6.978C0,-6.973 0.001,-6.968 0.001,-6.968C0.51,-1.572 -2.509,4.16 -9.164,8.957C-22.487,18.553 -45.35,20.762 -60.228,13.892C-67.666,10.451 -71.704,5.396 -72.214,-0C-72.723,-5.396 -69.709,-11.132 -63.045,-15.93C-49.722,-25.531 -26.859,-27.74 -11.98,-20.865C-4.543,-17.429 -0.51,-12.374 0,-6.978" style="fill:rgb(26,46,53);fill-rule:nonzero;"/>
            </g>
            <g transform="matrix(1,0,0,1,224.058,178.251)">
                <path d="M0,-6.978C0,-6.973 0.001,-6.968 0.001,-6.968C0.51,-1.572 -2.509,4.16 -9.164,8.957C-22.487,18.553 -45.35,20.762 -60.228,13.892C-67.666,10.451 -71.704,5.396 -72.214,-0C-72.723,-5.396 -69.709,-11.132 -63.045,-15.93C-49.722,-25.531 -26.859,-27.74 -11.98,-20.865C-4.543,-17.429 -0.51,-12.374 0,-6.978" style="fill:rgb(55,90,100);fill-rule:nonzero;"/>
            </g>
            <g transform="matrix(-0.0961921,-0.995363,-0.995363,0.0961921,178.186,113.288)">
                <path d="M-42.741,-47.071C-66.725,-47.018 -86.169,-27.751 -86.169,-4.036C-86.169,19.679 -66.725,38.862 -42.741,38.81C-18.756,38.757 0.687,19.491 0.687,-4.225C0.687,-27.94 -18.757,-47.123 -42.741,-47.071" style="fill:rgb(55,90,100);fill-rule:nonzero;"/>
            </g>
            <g transform="matrix(1,0,0,1,225.662,140.934)">
                <path d="M0,32.198C-0.474,33.177 -3.094,37.767 -12.283,42.001C-12.653,42.172 -13.027,42.335 -13.404,42.493C-18.988,44.826 -26.514,45.986 -33.915,45.754C-44.289,45.429 -53.904,40.16 -60.07,31.714C-59.758,30.583 -59.654,29.231 -59.799,27.695C-60.117,24.33 -61.566,20.782 -63.596,17.878C-61.809,13.934 -59.767,1.025 -37.594,-12.604C-26.859,-19.202 -12.139,-17.854 -8.079,-15.456C-17.318,-25.359 -31.01,-30.808 -45.526,-28.769C-67.891,-25.628 -84.242,-5.189 -82.644,17.594C-82.016,26.552 -78.778,34.659 -73.75,41.236C-73.527,41.528 -73.387,41.876 -73.352,42.244C-72.843,47.64 -68.804,52.695 -61.367,56.136C-46.489,63.006 -23.626,60.797 -10.302,51.201C-3.644,46.399 -0.629,40.662 -1.139,35.266C-1.175,34.898 -1.103,34.529 -0.938,34.199C-0.609,33.541 -0.296,32.874 0,32.198" style="fill:rgb(240,240,240);fill-rule:nonzero;"/>
            </g>
            <g transform="matrix(1,0,0,1,223.239,200.813)">
                <path d="M0,-24.45C-1.275,-20.882 -4.066,-17.36 -8.403,-14.231C-20.029,-5.858 -38.924,-3.106 -53.43,-7.115C-55.55,-7.694 -57.572,-8.42 -59.467,-9.296C-62.34,-10.625 -64.711,-12.2 -66.56,-13.938C-68.597,-15.392 -70.577,-17.957 -71.487,-18.87C-71.487,-18.87 -70.899,-16.702 -70.785,-16.328L-70.609,-15.744C-70.581,-15.653 -70.552,-15.563 -70.529,-15.471C-69.996,-13.542 -68.993,-11.687 -67.534,-9.956C-65.532,-7.587 -62.662,-5.464 -58.943,-3.744C-44.065,3.127 -21.202,0.917 -7.878,-8.679C-1.22,-13.481 1.795,-19.218 1.285,-24.614C1.251,-24.98 1.318,-25.351 1.487,-25.678C1.798,-26.304 2.094,-26.939 2.374,-27.577C2.111,-27.064 1.435,-25.919 0,-24.45" style="fill:rgb(225,225,225);fill-rule:nonzero;"/>
            </g>
            <g transform="matrix(1,0,0,1,217.581,173.132)">
                <path d="M0,-47.654C4.875,-41.495 -1.204,-29.648 -7.854,-25.008C-4.289,-23.4 -1.988,-17.339 -3.336,-13.299C3.69,-11.101 9.453,-5.264 8.082,0C10.987,-6.634 12.3,-14.092 11.569,-21.83C10.619,-31.893 6.366,-40.83 0,-47.654" style="fill:rgb(43,69,78);fill-rule:nonzero;"/>
            </g>
            <g transform="matrix(1,0,0,1,153.308,176.662)">
                <path d="M0,-21.153C-0.553,-21.1 -1.063,-20.909 -1.517,-20.582C-3.038,-19.486 -3.766,-16.936 -3.466,-13.76C-2.932,-8.105 0.608,-2.069 4.426,-0.305C5.89,0.37 7.212,0.336 8.247,-0.41C9.767,-1.505 10.496,-4.056 10.196,-7.232C9.662,-12.887 6.122,-18.923 2.305,-20.687C1.482,-21.066 0.706,-21.221 0,-21.153M6.768,0.557C5.995,0.632 5.151,0.464 4.263,0.054C0.332,-1.762 -3.31,-7.942 -3.856,-13.723C-4.174,-17.09 -3.404,-19.708 -1.744,-20.904C-0.589,-21.736 0.868,-21.785 2.467,-21.046C6.398,-19.23 10.04,-13.05 10.585,-7.269C10.904,-3.901 10.134,-1.284 8.474,-0.088C7.96,0.282 7.387,0.497 6.768,0.557" style="fill:rgb(225,225,225);fill-rule:nonzero;"/>
            </g>
            <g transform="matrix(1,0,0,1,205.339,189.435)">
                <path d="M0,-73.137C-8.132,-74.358 -22.584,-73.262 -37.739,-56.5L-44.087,-55.477C-44.087,-55.477 -52.042,-44.074 -52.828,-33.952C-50.61,-34.841 -46.043,-32.683 -43.025,-25.532C-40.007,-18.38 -42.639,-14.141 -42.639,-14.141L-39.85,-10.928C-33.891,-4.066 -25.499,0.182 -16.489,0.777C-9.751,1.221 -2.831,0.567 2.3,-0.941C4.416,-1.563 6.525,-2.354 8.521,-3.358C14.262,-6.244 17.461,-9.21 19.217,-11.407C19.248,-12.019 19.242,-12.629 19.185,-13.235C19.181,-13.276 19.183,-13.317 19.182,-13.357C17.227,-11.133 13.668,-7.783 8.152,-5.052C6.376,-4.173 4.36,-3.465 2.263,-2.894C-2.467,-1.605 -8.691,-1.002 -14.883,-1.295C-24.805,-1.764 -34.009,-6.674 -40.117,-14.599L-40.872,-15.579C-40.872,-15.579 -40.041,-19.229 -41.059,-23.41C-42.077,-27.591 -44.913,-31.055 -44.913,-31.055C-44.913,-31.055 -41.436,-49.076 -19.441,-61.763C-6.392,-69.29 3.772,-68.352 10.433,-65.783C7.339,-68.731 3.823,-71.213 0,-73.137" style="fill:rgb(225,225,225);fill-rule:nonzero;"/>
            </g>
            <g opacity="0.2">
                <g transform="matrix(1,0,0,1,159.307,115.076)">
                    <path d="M0,42.646C4.108,30.376 12.102,20.395 24.884,12.526C35.574,5.944 45.511,4.442 54.972,7.225C52.667,5.224 50.16,3.465 47.485,1.989C47.447,1.983 35.465,0 23.824,6.501C12.165,13.013 8.781,18.94 8.781,18.94L2.042,19.908C2.042,19.908 -5.221,31.715 -5.878,39.599C-5.156,39.509 -3.686,39.947 -3.686,39.947L-3.429,39.191C-2.735,39.393 -2.101,39.714 -1.523,40.146L-1.848,41.093C-1.848,41.093 -0.879,41.741 0,42.646" style="fill-rule:nonzero;"/>
                </g>
            </g>
            <g transform="matrix(1,0,0,1,147.996,176.33)">
                <path d="M0,-18.527C-1.464,-17.873 -2.5,-16.241 -2.762,-13.785C-3.287,-8.873 -0.516,-2.528 3.426,0.386C5.398,1.844 7.289,2.168 8.752,1.514C9.641,1.117 11.263,0.397 12.151,0C13.615,-0.654 14.651,-2.287 14.914,-4.743C15.438,-9.654 12.667,-15.999 8.725,-18.914C6.754,-20.372 4.863,-20.695 3.399,-20.041C2.51,-19.644 0.889,-18.924 0,-18.527" style="fill:rgb(210,104,204);fill-rule:nonzero;"/>
            </g>
            <g opacity="0.2">
                <g transform="matrix(1,0,0,1,147.996,176.33)">
                    <path d="M0,-18.527C-1.464,-17.873 -2.5,-16.241 -2.762,-13.785C-3.287,-8.873 -0.516,-2.528 3.426,0.386C5.398,1.844 7.289,2.168 8.752,1.514C9.641,1.117 11.263,0.397 12.151,0C13.615,-0.654 14.651,-2.287 14.914,-4.743C15.438,-9.654 12.667,-15.999 8.725,-18.914C6.754,-20.372 4.863,-20.695 3.399,-20.041C2.51,-19.644 0.889,-18.924 0,-18.527" style="fill-rule:nonzero;"/>
                </g>
            </g>
            <g transform="matrix(1,0,0,1,151.423,158.931)">
                <path d="M0,17.786C1.971,19.243 3.862,19.568 5.326,18.914C6.789,18.259 7.826,16.627 8.088,14.171C8.612,9.26 5.842,2.915 1.899,0C-0.072,-1.458 -1.963,-1.782 -3.427,-1.128C-4.89,-0.474 -5.927,1.159 -6.189,3.615C-6.713,8.526 -3.943,14.871 0,17.786" style="fill:rgb(210,104,204);fill-rule:nonzero;"/>
            </g>
            <g transform="matrix(1,0,0,1,151.423,158.931)">
                <path d="M0,17.786C1.971,19.243 3.862,19.568 5.326,18.914C6.789,18.259 7.826,16.627 8.088,14.171C8.612,9.26 5.842,2.915 1.899,0C-0.072,-1.458 -1.963,-1.782 -3.427,-1.128C-4.89,-0.474 -5.927,1.159 -6.189,3.615C-6.713,8.526 -3.943,14.871 0,17.786" style="fill:rgb(210,104,204);fill-rule:nonzero;"/>
            </g>
            <g transform="matrix(1,0,0,1,156.612,166.007)">
                <path d="M0,5.142C0.245,2.103 -1.566,-1.767 -4.046,-3.501C-5.289,-4.371 -6.464,-4.538 -7.358,-4.106C-7.629,-3.974 -9.453,-3.104 -9.726,-2.975C-10.623,-2.55 -11.24,-1.525 -11.363,0C-11.608,3.039 -9.797,6.909 -7.317,8.643C-6.075,9.512 -4.901,9.68 -4.008,9.249C-3.735,9.117 -1.902,8.244 -1.626,8.112C-0.735,7.684 -0.122,6.66 0,5.142" style="fill:rgb(225,225,225);fill-rule:nonzero;"/>
            </g>
            <g transform="matrix(-0.996761,-0.0804219,-0.0804219,0.996761,148.855,174.596)">
                <path d="M-0.443,-11.024C-3.053,-9.495 -5.171,-5.783 -5.171,-2.734C-5.17,0.316 -3.054,1.547 -0.443,0.018C2.167,-1.511 4.284,-5.223 4.284,-8.272C4.284,-11.322 2.167,-12.553 -0.443,-11.024" style="fill:rgb(250,250,250);fill-rule:nonzero;"/>
            </g>
            <g transform="matrix(-0.996763,-0.0803991,-0.0803991,0.996763,148.858,173.478)">
                <path d="M-0.345,-8.556C-2.37,-7.369 -4.013,-4.489 -4.014,-2.122C-4.014,0.245 -2.37,1.201 -0.345,0.014C1.681,-1.173 3.324,-4.053 3.325,-6.42C3.324,-8.787 1.681,-9.743 -0.345,-8.556" style="fill:rgb(26,46,53);fill-rule:nonzero;"/>
            </g>
            <g transform="matrix(-0.759073,0.651005,0.651005,0.759073,147.362,167.871)">
                <path d="M-3.662,2.416L-0.58,2.416L-1.983,-2.624C-2.725,-2.428 -3.332,-1.736 -3.622,-0.6C-3.853,0.31 -3.853,1.367 -3.662,2.416" style="fill:rgb(55,90,100);fill-rule:nonzero;"/>
            </g>
            <g transform="matrix(0.573541,-0.819177,-0.819177,-0.573541,153.02,169.93)">
                <path d="M-1.597,-0.924C-2.616,-1.521 -3.542,-1.587 -4.208,-1.208L-1.597,3.331L1.388,2.565C0.715,1.119 -0.372,-0.205 -1.597,-0.924" style="fill:rgb(43,69,78);fill-rule:nonzero;"/>
            </g>
            <g transform="matrix(0.514828,-0.857294,-0.857294,-0.514828,152.38,171.048)">
                <path d="M-2.995,-0.884C-3.638,-0.461 -3.994,0.385 -3.913,1.556C-3.848,2.495 -3.511,3.496 -2.995,4.431L-0.072,3.461L-2.995,-0.884Z" style="fill:rgb(55,90,100);fill-rule:nonzero;"/>
            </g>
            <g transform="matrix(-0.7585,0.651673,0.651673,0.7585,145.323,168.098)">
                <path d="M-2.272,3.574L0.807,3.574C0.515,2.003 -0.21,0.456 -1.217,-0.542C-2.059,-1.375 -2.937,-1.666 -3.679,-1.465L-2.272,3.574Z" style="fill:rgb(43,69,78);fill-rule:nonzero;"/>
            </g>
            <g transform="matrix(1,0,0,1,163.047,175.091)">
                <path d="M0,-18.891C-0.05,-18.753 -0.096,-18.616 -0.142,-18.488C-0.466,-17.584 -0.727,-16.84 -0.981,-16.278C1.047,-13.374 2.498,-9.829 2.815,-6.464C2.961,-4.926 2.854,-3.575 2.547,-2.442L3.546,-1.137L4.501,0C5.104,-1.354 5.867,-3.229 5.473,-7.403C5.078,-11.577 2.934,-16.657 0,-18.891" style="fill:rgb(26,46,53);fill-rule:nonzero;"/>
            </g>
            <g opacity="0.3">
                <g transform="matrix(1,0,0,1,229.149,139.621)">
                    <path d="M0,11.684C0.294,14.8 0.259,17.878 -0.083,20.868C-0.423,23.862 -1.064,26.777 -1.984,29.572C4.862,3.847 -11.442,-12.904 -11.442,-12.904C-19.06,-16.662 -34.52,-14.271 -43.454,-9.781C-42.688,-10.284 -41.898,-10.789 -41.078,-11.292C-30.346,-17.888 -15.629,-16.54 -11.568,-14.143C-5.2,-7.323 -0.951,1.62 0,11.684" style="fill:rgb(250,250,250);fill-rule:nonzero;"/>
                </g>
            </g>
            <g opacity="0.2">
                <g transform="matrix(1,0,0,1,223.463,131.266)">
                    <path d="M0,39.57C-0.032,38.964 -0.296,38.369 -0.792,38.038C-1.222,37.751 -1.772,37.692 -2.28,37.778C-3.833,38.04 -4.907,39.34 -4.775,40.949C-4.746,41.312 -4.566,41.679 -4.319,41.939C-3.707,42.583 -2.718,42.827 -1.882,42.541C-0.951,42.223 -0.198,41.037 -0.032,40.098C-0.001,39.925 0.009,39.747 0,39.57M-0.23,9.314C-1.577,5.043 -3.777,1.43 -7.755,-0.704C-11.328,-2.62 -15.543,-3.257 -19.535,-2.723C-20.695,-2.567 -21.904,-2.293 -22.771,-1.499C-24.056,-0.324 -24.236,1.726 -23.648,3.374C-23.059,5.021 -21.849,6.353 -20.64,7.608C-15.735,12.696 -10.204,17.5 -7.363,24.001C-6.053,27 -5.378,30.235 -4.391,33.359C-3.863,35.033 -2.446,36.668 -0.507,35.855C1.672,34.941 1.78,32.138 1.977,30.126C2.217,27.667 2.319,25.192 2.221,22.722C2.04,18.161 1.139,13.657 -0.23,9.314" style="fill:rgb(250,250,250);fill-rule:nonzero;"/>
                </g>
            </g>
            <g opacity="0.2">
                <g transform="matrix(1,0,0,1,177.35,146.511)">
                    <path d="M0,22.523C-1.755,22.087 -3.515,23.501 -3.529,25.141C-3.537,26.034 -2.811,26.902 -2.175,27.106C-1.182,27.426 0.217,27.011 0.834,26.186C1.781,24.922 1.774,22.964 0,22.523M2.947,-3.957C-0.37,-4.903 -4.897,1.197 -6.325,4.997C-7.387,7.822 -7.452,11.163 -7.029,14.058C-6.881,15.067 -6.543,16.226 -6.004,17.258C-5.04,19.103 -2.913,20.73 -0.847,19.353C0.07,18.742 0.65,17.74 1.152,16.752C2.857,13.389 9.314,-2.141 2.947,-3.957" style="fill:rgb(250,250,250);fill-rule:nonzero;"/>
                </g>
            </g>
        </g>
    </g>
</svg>
